<svg width="90" height="90" viewBox="0 0 90 90" fill="none" xmlns="http://www.w3.org/2000/svg">
<path d="M44.9999 27.5C44.9999 39.9264 37.3888 50 27.9999 50C18.6111 50 10.9999 39.9264 10.9999 27.5C10.9999 15.0736 18.6111 5 27.9999 5C37.3888 5 44.9999 15.0736 44.9999 27.5Z" fill="#8CFF9C"/>
<path d="M34.9999 54C34.9999 58.4183 31.8659 62 27.9999 62C24.1339 62 20.9999 58.4183 20.9999 54C20.9999 49.5817 24.1339 46 27.9999 46C31.8659 46 34.9999 49.5817 34.9999 54Z" fill="#8CFF9C"/>
<path d="M53.9999 78C58.2623 90.6659 51.1522 89 27.4999 89C3.8476 89 -9.90629e-05 93 0.999911 78C-2 55.5 17 51.5 26 59.5C47.5 47.5 56.7271 63.2382 53.9999 78Z" fill="#8CFF9C"/>
<path d="M14.6888 30.4265C14.6888 32.8711 13.1914 34.8529 11.3443 34.8529C9.49726 34.8529 7.99991 32.8711 7.99991 30.4265C7.99991 27.9818 9.49726 26 11.3443 26C13.1914 26 14.6888 27.9818 14.6888 30.4265Z" fill="#8CFF9C"/>
<path d="M47.6888 30.4265C47.6888 32.8711 46.1914 34.8529 44.3443 34.8529C42.4973 34.8529 40.9999 32.8711 40.9999 30.4265C40.9999 27.9818 42.4973 26 44.3443 26C46.1914 26 47.6888 27.9818 47.6888 30.4265Z" fill="#8CFF9C"/>
<path d="M44.6476 54.8883L35.4857 53.8526V48.9449C39.983 46.4381 43.1116 41.7609 43.4452 36.3393H44.9988C47.2922 36.3393 49.1581 34.4734 49.1581 32.18V29.339C49.1581 27.5063 47.9661 25.9478 46.317 25.395V21.917C46.317 17.0144 44.4071 12.4025 40.9382 8.92956C37.4665 5.46174 32.8544 3.55188 27.9517 3.55188C24.2429 3.55188 20.668 4.6535 17.6131 6.73774C17.0116 7.14801 16.8565 7.96821 17.267 8.56973C17.6773 9.17108 18.4971 9.32629 19.099 8.91567C21.7141 7.13149 24.7753 6.18842 27.9517 6.18842C32.1507 6.18842 36.1009 7.82424 39.0737 10.7937C42.0444 13.7676 43.6802 17.7179 43.6802 21.9168V25.1793H42.1574C41.4294 25.1793 40.8391 25.7696 40.8391 26.4977V29.9971L40.4234 29.2595C40.2059 28.8735 39.8072 28.6225 39.3653 28.5916C39.2825 28.5858 31.0553 27.953 29.1899 22.8818C28.999 22.3633 28.5052 22.0188 27.9526 22.0188C27.3999 22.0188 26.9061 22.3633 26.7152 22.8818C24.8497 27.953 16.6226 28.5858 16.5414 28.5914C16.0982 28.6213 15.6997 28.8725 15.4818 29.2594L15.0659 29.9973V26.4977C15.0659 25.7696 14.4758 25.1793 13.7475 25.1793H12.2251V21.9168C12.2251 18.6673 13.2068 15.5502 15.0639 12.9024C15.4819 12.3063 15.3378 11.4842 14.7415 11.0662C14.1453 10.6482 13.3233 10.7925 12.9052 11.3884C10.7355 14.4821 9.58834 18.1227 9.58834 21.9168V25.3948C7.93916 25.9475 6.74701 27.5061 6.74701 29.3388V32.1798C6.74701 34.4732 8.61293 36.3391 10.9063 36.3391H12.4597C12.7934 41.7607 15.9219 46.4379 20.4195 48.9448V53.8524L11.2576 54.8881C4.83979 55.6139 0 61.0315 0 67.4904V86.9047C0 88.6107 1.38797 89.9986 3.09393 89.9986H52.8114C54.5173 89.9986 55.9053 88.6107 55.9053 86.9047V67.4904C55.9053 61.0315 51.0655 55.6139 44.6476 54.8883ZM43.476 27.8164H44.9988C45.8383 27.8164 46.5216 28.4995 46.5216 29.339V32.18C46.5216 33.0195 45.8383 33.7026 44.9988 33.7026H43.476V27.8164ZM9.38391 32.1801V29.3392C9.38391 28.4996 10.0672 27.8165 10.9067 27.8165H12.4293V33.7029H10.9067C10.0672 33.7028 9.38391 33.0197 9.38391 32.1801ZM15.0659 35.3762V35.3671L17.4438 31.1487C19.45 30.8971 25.0455 29.8695 27.9526 26.0452C30.8596 29.8695 36.4551 30.8971 38.4613 31.1487L40.8391 35.3671V35.3762C40.8391 42.482 35.0582 48.2629 27.9526 48.2629C20.847 48.2629 15.0659 42.482 15.0659 35.3762ZM27.9527 50.8994C29.6629 50.8994 31.3091 50.6206 32.8491 50.1075V55.0303C32.8491 57.7301 30.6526 59.9267 27.9527 59.9267C25.2529 59.9267 23.0563 57.7301 23.0563 55.0303V50.1075C24.5964 50.6208 26.2426 50.8994 27.9527 50.8994ZM2.63672 86.9047V67.4904C2.63672 62.3743 6.47033 58.0831 11.5541 57.5083L20.5629 56.49C20.8183 57.7851 21.4072 58.9613 22.2353 59.927H13.7475C12.0417 59.927 10.6539 61.3148 10.6539 63.0208V69.3118C10.6539 70.0399 11.244 70.6302 11.9723 70.6302C12.7004 70.6302 13.2906 70.0399 13.2906 69.3118V63.0208C13.2906 62.7687 13.4956 62.5638 13.7477 62.5638H42.1583C42.4104 62.5638 42.6155 62.7687 42.6155 63.0208V81.6803H13.2905V75.464C13.2905 74.7359 12.7004 74.1456 11.9721 74.1456C11.244 74.1456 10.6538 74.7359 10.6538 75.464V81.6977C9.65443 81.8229 8.87801 82.6761 8.87801 83.7088V85.8396C8.87801 86.377 8.98154 86.8905 9.16805 87.3623H3.09393C2.84186 87.3621 2.63672 87.157 2.63672 86.9047ZM11.5147 85.8393V84.3167H44.3907V85.8393C44.3907 86.6788 43.7075 87.3619 42.868 87.3619H13.0375C12.1978 87.3621 11.5147 86.679 11.5147 85.8393ZM53.2688 86.9047C53.2688 87.157 53.0636 87.3619 52.8114 87.3619H46.7372C46.9236 86.8899 47.0273 86.3767 47.0273 85.8393V83.7085C47.0273 82.6759 46.251 81.8227 45.2519 81.6975V63.0206C45.2519 61.3148 43.8641 59.9269 42.1581 59.9269H33.67C34.4983 58.9611 35.0872 57.7851 35.3424 56.4898L44.3512 57.5081C49.435 58.0827 53.2686 62.3741 53.2686 67.4902V86.9047H53.2688Z" fill="#00F222"/>
<path d="M65.4628 10.3971C64.9478 9.88226 64.1132 9.88226 63.5983 10.3971L59.5805 14.415C59.0656 14.9298 59.0656 15.7646 59.5805 16.2793L63.5983 20.2971C63.8558 20.5545 64.1933 20.6833 64.5307 20.6833C64.868 20.6833 65.2055 20.5546 65.463 20.2971C65.9779 19.7823 65.9779 18.9475 65.463 18.4328L62.3773 15.3471L65.463 12.2615C65.9775 11.7466 65.9775 10.912 65.4628 10.3971Z" fill="#00F222"/>
<path d="M76.738 20.2971C76.9955 20.5545 77.333 20.6833 77.6703 20.6833C78.0076 20.6833 78.3451 20.5546 78.6026 20.2971L82.6205 16.2793C83.1353 15.7644 83.1353 14.9296 82.6205 14.415L78.6025 10.3971C78.0874 9.88226 77.2528 9.88226 76.738 10.3971C76.2231 10.912 76.2231 11.7468 76.738 12.2615L79.8236 15.3471L76.738 18.4328C76.2233 18.9475 76.2233 19.7823 76.738 20.2971Z" fill="#00F222"/>
<path d="M70.701 11.0449L68.9254 19.0804C68.7682 19.7912 69.2172 20.4951 69.9282 20.652C70.024 20.6733 70.1197 20.6833 70.2139 20.6833C70.8189 20.6833 71.364 20.2643 71.4999 19.6492L73.2755 11.6137C73.4326 10.9029 72.9837 10.199 72.2726 10.042C71.5616 9.88508 70.8579 10.334 70.701 11.0449Z" fill="#00F222"/>
<path d="M61.289 37.7891L71.2191 30.7778C71.2975 30.7227 71.3901 30.6936 71.4864 30.6936H75.6611C76.3891 30.6936 76.9794 30.1033 76.9794 29.3752C76.9794 28.6471 76.3893 28.0568 75.6611 28.0568H71.4864C70.8452 28.0568 70.2289 28.2514 69.7012 28.6216L60.1663 35.3539V30.0854C60.1663 28.9669 59.2563 28.0568 58.1378 28.0568H57.0727C55.8417 28.0568 54.8403 27.0547 54.8403 25.8227V4.87041C54.8403 3.63942 55.8417 2.63799 57.0727 2.63799H85.1283C86.3593 2.63799 87.3607 3.63942 87.3607 4.87041V25.8228C87.3607 27.0547 86.3593 28.057 85.1283 28.057H81.8132C81.0851 28.057 80.4949 28.6473 80.4949 29.3754C80.4949 30.1035 81.085 30.6937 81.8132 30.6937H85.1283C87.8132 30.6937 89.9972 28.5088 89.9972 25.823V4.87041C89.9972 2.18571 87.8132 0.00144958 85.1283 0.00144958H57.0731C54.3882 0.00144958 52.2041 2.18571 52.2041 4.87041V25.8228C52.2041 28.5086 54.3882 30.6936 57.0731 30.6936H57.5301V35.842C57.5301 36.7352 58.0228 37.5455 58.8156 37.957C59.1629 38.1372 59.5396 38.2263 59.9149 38.2263C60.3969 38.2263 60.877 38.0792 61.289 37.7891Z" fill="#00F222"/>
</svg>
