<svg width="90" height="90" viewBox="0 0 90 90" fill="none" xmlns="http://www.w3.org/2000/svg">
<path d="M76 33C76 50.1208 62.1208 64 45 64C27.8792 64 14 50.1208 14 33C14 15.8792 27.8792 2 45 2C62.1208 2 76 15.8792 76 33Z" fill="#8CFFF8"/>
<path d="M31 32.5C31 40.5081 24.5081 47 16.5 47C8.49187 47 2 40.5081 2 32.5C2 24.4919 8.49187 18 16.5 18C24.5081 18 31 24.4919 31 32.5Z" fill="#8CFFF8"/>
<path d="M89 32.5C89 40.5081 82.5081 47 74.5 47C66.4919 47 60 40.5081 60 32.5C60 24.4919 66.4919 18 74.5 18C82.5081 18 89 24.4919 89 32.5Z" fill="#8CFFF8"/>
<path d="M60 54C60 58.7224 57.3303 63.2601 53.5001 66.2891C51.3797 62.0381 50.1897 65.3123 49.0001 68.9051C47.2325 69.6077 45.368 70 43.5001 70C43.2126 69.271 42.0431 68.8422 40.5001 68.2232C40.5995 64.4049 38.4076 63.8532 35.0001 65.0821C32.6538 63.0137 30.5899 59.7026 30 54C28.4999 39.5 36.7157 39 45 39C53.2843 39 60 45.7157 60 54Z" fill="#8CFFF8"/>
<path d="M84.0435 80.9754C83.6794 80.3447 82.8731 80.1288 82.2426 80.4925C81.6119 80.8566 81.3959 81.6629 81.7597 82.2934L85.8273 89.3405C86.0715 89.7636 86.5146 90 86.9702 90C87.1938 90 87.4206 89.943 87.628 89.8233C88.2587 89.4593 88.4747 88.653 88.1109 88.0225L84.0435 80.9754Z" fill="#009AD1"/>
<path d="M78.2263 70.8982C77.4294 69.5213 75.6601 69.0488 74.2836 69.8454L74.0661 69.971L71.1984 65.0039L71.415 64.8789C72.7942 64.0833 73.269 62.3139 72.4732 60.9344L68.9933 54.9067C70.8618 52.8887 72.4787 50.638 73.7877 48.214C74.016 48.224 74.2454 48.23 74.4762 48.23C83.0361 48.23 90 41.2661 90 32.7062C90 24.1465 83.0361 17.1826 74.4762 17.1826C74.2453 17.1826 74.0157 17.1886 73.7872 17.1988C71.1011 12.2196 67.1678 8.01017 62.3616 4.99131C57.1634 1.72582 51.1555 0 44.9875 0C38.8206 0 32.8133 1.72582 27.6154 4.99096C22.8094 8.01 18.8763 12.2191 16.1909 17.1979C15.9694 17.1884 15.747 17.1826 15.5232 17.1826C6.96375 17.1826 0 24.1462 0 32.7057C0 36.5868 1.43895 40.3015 4.05158 43.1655C4.54236 43.7036 5.37627 43.7416 5.91416 43.251C6.45205 42.7602 6.49037 41.9265 5.99959 41.3884C3.83098 39.0115 2.63672 35.9277 2.63672 32.7057C2.63672 25.6001 8.41764 19.8193 15.5232 19.8193C22.6299 19.8193 28.4115 25.6003 28.4115 32.7057C28.4115 39.8123 22.6299 45.594 15.5232 45.594C13.8001 45.594 12.1296 45.2607 10.5583 44.6029C9.88699 44.3213 9.11426 44.6382 8.83318 45.3099C8.55211 45.9814 8.86869 46.7539 9.54035 47.0348C11.4356 47.8283 13.4485 48.2305 15.5232 48.2305C15.7463 48.2305 15.9681 48.2247 16.1891 48.2152C19.2999 53.9752 24.1571 58.754 29.9749 61.7678L31.4119 64.2567C32.0142 65.2999 33.2082 65.8236 34.3835 65.5599L37.3743 64.8889C37.4017 64.8831 37.4347 64.8919 37.4646 64.9136C38.196 65.4472 38.9867 65.9041 39.815 66.2713C39.848 66.286 39.8718 66.31 39.8802 66.3368L40.7941 69.261C41.1532 70.4106 42.2038 71.1831 43.4083 71.1831H46.5688C47.7733 71.1831 48.8239 70.4106 49.1831 69.2611L50.0968 66.3368C50.1052 66.31 50.1291 66.286 50.1623 66.2713C50.9595 65.9178 51.7206 65.4794 52.429 64.971L55.6924 70.6247C56.2271 71.5482 57.1997 72.0652 58.1984 72.065C58.6879 72.065 59.184 71.9408 59.6377 71.6792L59.8546 71.554L62.721 76.5188L62.5017 76.6454C61.834 77.0316 61.3566 77.6545 61.1576 78.3993C60.9583 79.1448 61.0615 79.9232 61.4473 80.5883L66.501 89.3405C66.7452 89.7634 67.1883 89.9998 67.644 89.9998C67.8676 89.9998 68.0943 89.9429 68.3021 89.823C68.9326 89.4589 69.1487 88.6526 68.7846 88.0221L63.7297 79.2677C63.6875 79.1947 63.6929 79.1255 63.7051 79.0803C63.7174 79.0344 63.7476 78.9708 63.8212 78.9282L75.6032 72.1283C75.7227 72.0594 75.876 72.0998 75.944 72.2174L78.6844 76.9653C79.0483 77.596 79.8546 77.8119 80.4853 77.448C81.1158 77.0841 81.3321 76.2778 80.968 75.6473L78.2263 70.8982ZM60.0993 58.7067C60.0093 58.5624 59.9064 58.4239 59.7876 58.2949L58.0187 56.3743C62.136 54.1041 65.5596 50.8338 68.0214 46.8228C68.9611 47.2542 69.9506 47.5951 70.9794 47.8329C68.3619 52.3121 64.5805 56.0906 60.0993 58.7067ZM87.3633 32.7062C87.3633 39.8122 81.5822 45.5933 74.4762 45.5933C67.3703 45.5933 61.5892 39.812 61.5892 32.7062C61.5892 25.6004 67.3703 19.8193 74.4762 19.8193C81.5822 19.8193 87.3633 25.6003 87.3633 32.7062ZM31.0482 32.7057C31.0482 27.3825 28.3542 22.677 24.2582 19.8795C25.461 16.2105 32.9984 10.7805 36.9694 9.675C37.5799 9.27826 35.6866 9.47619 35.2898 8.8657C34.8929 8.25504 36.7095 6.78902 36.0991 7.18594C31.5016 9.24639 23.0987 15.0629 21.9612 18.5817C21.021 18.1515 20.0308 17.8123 19.0018 17.5758C21.4494 13.3785 24.8818 9.82195 29.018 7.22391C33.7952 4.22279 39.3173 2.63672 44.9875 2.63672C50.6586 2.63672 56.1814 4.22297 60.959 7.22408C65.0962 9.82283 68.5297 13.3808 70.9782 17.5801C69.9497 17.8179 68.9602 18.1587 68.0207 18.5901C63.1099 10.5986 54.4004 5.68301 44.9877 5.68301C41.9418 5.68301 38.9514 6.18873 36.0991 7.18594C35.4118 7.42623 35.0496 8.17822 35.2898 8.8657C35.5301 9.55283 36.2814 9.91547 36.9694 9.675C39.5411 8.7757 42.2388 8.31973 44.9877 8.31973C53.4503 8.31973 61.2837 12.7243 65.7253 19.8912C61.6391 22.6904 58.9525 27.3902 58.9525 32.7064C58.9525 38.0227 61.6391 42.7227 65.7255 45.5217C63.7026 48.7897 60.9704 51.5074 57.7083 53.5039C57.7007 53.4153 57.6963 53.3262 57.6868 53.238C57.683 53.2016 57.6918 53.1686 57.7111 53.1476L59.7876 50.8929C60.6037 50.0069 60.7472 48.7109 60.145 47.668L58.5647 44.9307C57.9625 43.8877 56.7682 43.3652 55.5931 43.6277L52.6025 44.2986C52.5751 44.3053 52.5419 44.296 52.5122 44.2742C51.7808 43.7405 50.9901 43.2837 50.1618 42.9165C50.1288 42.9017 50.105 42.8778 50.0966 42.8509L49.1827 39.9264C48.8234 38.7768 47.7728 38.0044 46.5685 38.0044H43.4079C42.2035 38.0044 41.153 38.7768 40.7937 39.9264L39.88 42.8509C39.8716 42.8778 39.8477 42.9017 39.8145 42.9165C38.9865 43.2837 38.1959 43.7405 37.4643 44.2742C37.4346 44.296 37.4013 44.3053 37.3737 44.2986L34.3832 43.6277C33.2082 43.364 32.014 43.8878 31.4118 44.9307L29.8315 47.6678C29.2291 48.7109 29.3727 50.0069 30.1887 50.8929L32.2654 53.1478C32.2845 53.1685 32.2933 53.2016 32.2893 53.2383C32.2798 53.3266 32.2755 53.4155 32.268 53.5041C29.0095 51.5102 26.2804 48.796 24.2594 45.5326C28.3549 42.7344 31.0482 38.0289 31.0482 32.7057ZM30.1887 58.295C30.07 58.4239 29.9674 58.5624 29.8774 58.7065C25.397 56.0909 21.6165 52.3144 18.9997 47.838C20.0299 47.6014 21.0212 47.2618 21.9623 46.8311C24.4225 50.8386 27.8434 54.106 31.9579 56.3743L30.1887 58.295ZM49.0938 63.8608C48.3667 64.183 47.8151 64.7988 47.5801 65.5502L46.6662 68.4747C46.6529 68.5174 46.6137 68.5462 46.5687 68.5462H43.4081C43.3633 68.5462 43.3239 68.5174 43.3106 68.4745L42.3967 65.5502C42.1618 64.7988 41.6101 64.183 40.8834 63.8608C40.2265 63.5695 39.5991 63.2071 39.0189 62.7836C38.54 62.4343 37.9689 62.2506 37.3913 62.2506C37.1929 62.2506 36.9933 62.2723 36.7968 62.3164L33.8061 62.9873C33.7621 62.9965 33.718 62.9775 33.6955 62.9386L32.1151 60.2014C32.0927 60.1625 32.098 60.1142 32.1284 60.0812L34.2047 57.8268C34.7388 57.2472 34.9963 56.4608 34.9114 55.6692C34.8731 55.3111 34.8536 54.9492 34.8536 54.594C34.8536 54.2385 34.8729 53.8768 34.9112 53.5192C34.9961 52.7273 34.7386 51.9409 34.2047 51.3615L32.1282 49.1068C32.0978 49.0737 32.0924 49.0256 32.1149 48.9865L33.6952 46.2493C33.7177 46.2102 33.7621 46.1906 33.8059 46.2008L36.7961 46.8717C37.5652 47.0442 38.375 46.874 39.0185 46.4045C39.5988 45.981 40.2261 45.6186 40.8827 45.3273C41.6097 45.0051 42.1613 44.3893 42.3963 43.6379L43.3102 40.7134C43.3236 40.6705 43.3628 40.6417 43.4078 40.6417H46.5683C46.6131 40.6417 46.6525 40.6705 46.6659 40.7134L47.5798 43.6379C47.8146 44.3893 48.3664 45.0051 49.0931 45.3273C49.75 45.6186 50.3773 45.981 50.9576 46.4045C51.6011 46.8738 52.4111 47.0442 53.1798 46.8717L56.17 46.2008C56.2145 46.1909 56.2584 46.2104 56.2809 46.2493L57.8614 48.9867C57.8837 49.0256 57.8784 49.0737 57.848 49.1068L55.7717 51.3613C55.2377 51.9409 54.9802 52.7273 55.0651 53.5189C55.1034 53.8768 55.1229 54.2385 55.1229 54.594C55.1229 54.9492 55.1036 55.3111 55.0652 55.6689C54.9803 56.4608 55.2379 57.2472 55.7717 57.8266L57.848 60.081C57.8786 60.114 57.8841 60.1625 57.8616 60.2016L56.2811 62.9388C56.2588 62.9777 56.2147 62.9972 56.1704 62.9872L53.1802 62.3166C52.4109 62.1436 51.6013 62.3143 50.9578 62.7836C50.3777 63.2071 49.7503 63.5695 49.0938 63.8608ZM57.9749 69.3051L55.838 65.603C56.9313 65.7483 58.0045 65.2278 58.5647 64.2572L60.0017 61.7683C62.5623 60.4418 64.9371 58.7739 67.0588 56.8299L70.1895 62.2524C70.2585 62.3723 70.2172 62.5261 70.0968 62.5953L58.3193 69.3956C58.1989 69.4654 58.0437 69.4239 57.9749 69.3051ZM62.1376 70.2357L68.9149 66.3224L71.7824 71.289L65.0043 75.201L62.1376 70.2357Z" fill="#009AD1"/>
<path d="M65.9278 36.238L69.4234 39.7334C70.2426 40.5527 71.3317 41.0039 72.4901 41.0039C73.6483 41.0039 74.7375 40.5529 75.5568 39.7334L82.2853 33.0048C83.1045 32.1857 83.5557 31.0966 83.5555 29.9382C83.5555 28.7796 83.1045 27.6906 82.2853 26.8717C81.4662 26.0523 80.3771 25.6011 79.2185 25.6011C78.0601 25.6011 76.9709 26.0523 76.1518 26.8715L72.4899 30.5335L72.0612 30.105C71.2421 29.2857 70.1529 28.8344 68.9943 28.8344C67.8359 28.8344 66.7468 29.2857 65.9277 30.1048C65.1085 30.9239 64.6573 32.0131 64.6575 33.1715C64.6575 34.3297 65.1087 35.4188 65.9278 36.238ZM67.7922 31.9691C68.1133 31.648 68.5403 31.471 68.9945 31.471C69.4487 31.471 69.8757 31.6478 70.1969 31.9691L71.5579 33.3299C72.073 33.8449 72.9074 33.8445 73.4223 33.3299L78.0163 28.7358C78.3375 28.4147 78.7644 28.2376 79.2187 28.2376C79.6729 28.2376 80.0997 28.4145 80.4208 28.7358C80.742 29.0568 80.9188 29.4839 80.9188 29.938C80.9188 30.3922 80.742 30.8192 80.4208 31.1401L73.6923 37.8689C73.3709 38.19 72.944 38.367 72.4899 38.367C72.0359 38.367 71.6089 38.1902 71.2878 37.8689L67.7922 34.3733C67.471 34.0523 67.2942 33.6252 67.2942 33.1711C67.2942 32.7171 67.471 32.2901 67.7922 31.9691Z" fill="#009AD1"/>
<path d="M14.7065 39.6571L15.5238 38.8397L16.3412 39.6571C17.1604 40.4763 18.2495 40.9275 19.4079 40.9275C20.5663 40.9275 21.6555 40.4764 22.4746 39.6571C23.2937 38.838 23.745 37.749 23.745 36.5904C23.745 35.4319 23.2939 34.3429 22.4746 33.5238L21.6572 32.7065L22.4746 31.8892C23.2937 31.07 23.745 29.9811 23.745 28.8225C23.745 27.6639 23.2939 26.5749 22.4746 25.7558C20.7838 24.065 18.0324 24.0653 16.3412 25.7558L15.5238 26.5732L14.7065 25.7558C13.0156 24.065 10.2643 24.0653 8.57311 25.7558C7.75397 26.5749 7.30273 27.6639 7.30273 28.8225C7.30273 29.9811 7.75379 31.07 8.57311 31.889L9.39049 32.7065L8.57311 33.5238C7.75397 34.3429 7.30273 35.4319 7.30273 36.5904C7.30273 37.749 7.75379 38.838 8.57311 39.6571C9.39225 40.4763 10.4814 40.9275 11.6398 40.9275C12.7982 40.9275 13.8873 40.4763 14.7065 39.6571ZM9.93945 36.5904C9.93945 36.1364 10.1163 35.7092 10.4374 35.3883L12.1872 33.6387C12.4345 33.3914 12.5734 33.0562 12.5734 32.7064C12.5734 32.3567 12.4345 32.0215 12.1872 31.7742L10.4374 30.0243C10.1163 29.7033 9.93945 29.2762 9.93945 28.8221C9.93945 28.3681 10.1163 27.9409 10.4374 27.62C11.1005 26.9571 12.1794 26.9571 12.8421 27.62L14.5917 29.3695C15.1065 29.8842 15.9413 29.8842 16.456 29.3695L18.2056 27.62C18.8686 26.9573 19.9474 26.9569 20.6103 27.62C20.9314 27.9409 21.1082 28.3681 21.1082 28.8221C21.1082 29.2762 20.9314 29.7033 20.6103 30.0245L18.8605 31.7742C18.6132 32.0214 18.4743 32.3566 18.4743 32.7064C18.4743 33.056 18.6132 33.3912 18.8605 33.6387L20.6103 35.3883C20.9314 35.7092 21.1082 36.1364 21.1082 36.5904C21.1082 37.0445 20.9314 37.4716 20.6103 37.7926C20.2891 38.1139 19.8621 38.2908 19.4079 38.2908C18.9539 38.2908 18.5267 38.1139 18.2056 37.7926L16.456 36.0431C16.1987 35.7857 15.8612 35.657 15.5238 35.657C15.1865 35.657 14.849 35.7857 14.5917 36.0431L12.8421 37.7926C12.521 38.1139 12.094 38.2908 11.6398 38.2908C11.1857 38.2908 10.7586 38.1139 10.4374 37.7926C10.1163 37.4715 9.93945 37.0445 9.93945 36.5904Z" fill="#009AD1"/>
<path d="M44.9885 49.458C42.1565 49.458 39.8525 51.762 39.8525 54.594C39.8525 57.426 42.1565 59.7302 44.9885 59.7302C47.8205 59.7302 50.1245 57.4262 50.1245 54.594C50.1245 51.762 47.8204 49.458 44.9885 49.458ZM44.9885 57.0933C43.6104 57.0933 42.4893 55.972 42.4893 54.5938C42.4893 53.2157 43.6104 52.0946 44.9885 52.0946C46.3666 52.0946 47.4878 53.2157 47.4878 54.5938C47.4878 55.972 46.3665 57.0933 44.9885 57.0933Z" fill="#009AD1"/>
<path d="M37.4861 30.7538C37.7434 31.0112 38.0809 31.1398 38.4182 31.1398C38.7555 31.1398 39.093 31.0112 39.3504 30.7538C39.8653 30.2388 39.8653 29.4042 39.3504 28.8893L36.2647 25.8036L39.3504 22.7181C39.8653 22.2033 39.8653 21.3685 39.3504 20.8538C38.8357 20.3389 38.0009 20.3388 37.4861 20.8536L33.4682 24.8713C33.2209 25.1186 33.082 25.4538 33.082 25.8036C33.082 26.1533 33.2209 26.4885 33.4682 26.736L37.4861 30.7538Z" fill="#009AD1"/>
<path d="M50.6261 30.7538C50.8835 31.0112 51.221 31.1398 51.5583 31.1398C51.8956 31.1398 52.2331 31.0112 52.4905 30.7538L56.5083 26.736C56.7556 26.4887 56.8945 26.1534 56.8945 25.8036C56.8945 25.454 56.7556 25.1188 56.5083 24.8713L52.4905 20.8536C51.9756 20.3389 51.1408 20.3388 50.6261 20.8538C50.1113 21.3687 50.1113 22.2035 50.6261 22.7181L53.7118 25.8036L50.6261 28.8893C50.1113 29.4042 50.1113 30.2388 50.6261 30.7538Z" fill="#009AD1"/>
<path d="M43.8162 31.1087C43.912 31.1298 44.0076 31.1402 44.1018 31.1402C44.7067 31.1402 45.2518 30.7211 45.3878 30.1059L47.1636 22.0702C47.3207 21.3592 46.8716 20.6555 46.1607 20.4986C45.4497 20.3418 44.7462 20.7902 44.5891 21.5014L42.8133 29.5371C42.6562 30.2481 43.1051 30.9517 43.8162 31.1087Z" fill="#009AD1"/>
</svg>
