<svg width="90" height="90" viewBox="0 0 90 90" fill="none" xmlns="http://www.w3.org/2000/svg">
<rect x="19.1877" y="1.82739" width="52.9949" height="71.269" rx="3" fill="#8CFF9C"/>
<path d="M18.3657 50.7885C19.0938 50.7885 19.6841 50.1984 19.6841 49.4701V5.5793C19.6841 3.95684 21.0042 2.63672 22.6267 2.63672H67.3735C68.996 2.63672 70.3161 3.95684 70.3161 5.5793V15.2895C70.3161 16.0177 70.9064 16.6078 71.6345 16.6078C72.3626 16.6078 72.9528 16.0177 72.9528 15.2895V5.5793C72.9528 2.50277 70.4499 0 67.3735 0H22.6267C19.5503 0 17.0474 2.50277 17.0474 5.5793V49.4701C17.0474 50.1982 17.6376 50.7885 18.3657 50.7885Z" fill="#00F222"/>
<path d="M72.9528 15.4688C72.9528 14.7405 72.3626 15.9375 71.6345 15.9375C70.9064 15.9375 70.3161 14.7405 70.3161 15.4688V71.8131H19.6841V44.6811C19.6841 43.9876 17.0474 44.4564 17.0474 45.1498V80.2348C17.0474 83.3113 19.5503 85.8141 22.6267 85.8141H63.5731C62.8906 85.8141 64.2557 83.1774 63.5731 83.1774H22.6267C21.0042 83.1774 19.6841 81.8573 19.6841 80.2348V74.4498H70.3161V80.2348C70.3161 81.8573 68.996 83.1774 67.3735 83.1774H63.5731C64.2557 83.1774 62.8906 85.8141 63.5731 85.8141H67.3735C70.4499 85.8141 72.9528 83.3113 72.9528 80.2348V15.4688Z" fill="#00F222"/>
<path d="M45.3915 33.0913C42.4018 33.0913 39.9695 35.5236 39.9695 38.5135C39.9695 41.5034 42.4018 43.9357 45.3915 43.9357C48.3812 43.9357 50.8135 41.5034 50.8135 38.5135C50.8135 35.5236 48.3812 33.0913 45.3915 33.0913ZM45.3915 41.1519C43.9366 41.1519 42.753 39.9682 42.753 38.5133C42.753 37.0584 43.9366 35.8747 45.3915 35.8747C46.8464 35.8747 48.0299 37.0584 48.0299 38.5133C48.0299 39.9682 46.8464 41.1519 45.3915 41.1519Z" fill="#00F222"/>
<path d="M61.0149 34.6062C61.8763 33.6711 62.0279 32.3029 61.3921 31.2016L59.7239 28.3122C59.0883 27.2109 57.8273 26.659 56.5868 26.9364L53.4302 27.6447C53.4005 27.6512 53.3657 27.6418 53.3343 27.6189C52.5621 27.0555 51.7274 26.5732 50.853 26.1856C50.8181 26.17 50.7931 26.1448 50.7842 26.1162L49.8194 23.0292C49.4403 21.8156 48.3311 21 47.0596 21H43.723C42.4515 21 41.3423 21.8156 40.9632 23.029L39.9984 26.1162C39.9895 26.1448 39.9643 26.17 39.9292 26.1856C39.0552 26.5732 38.2205 27.0555 37.4481 27.6189C37.4168 27.6418 37.3815 27.6518 37.3526 27.6447L34.1954 26.9364C32.9543 26.6581 31.6941 27.2109 31.0586 28.312L29.3903 31.2016C28.7545 32.3029 28.9061 33.6711 29.7675 34.6062L31.9597 36.9864C31.9801 37.0085 31.9894 37.0433 31.9853 37.0823C31.9344 37.5579 31.9085 38.0395 31.9085 38.5134C31.9085 38.9874 31.9343 39.4688 31.9853 39.9449C31.9894 39.9835 31.9801 40.0184 31.9597 40.0405L29.7675 42.4206C28.9061 43.3557 28.7545 44.7239 29.3903 45.8253L31.0586 48.7146C31.6941 49.8158 32.9549 50.3681 34.1956 50.0905L37.3522 49.3821C37.3823 49.376 37.4166 49.3851 37.4483 49.4081C38.2214 49.9721 39.0561 50.4544 39.9288 50.8411C39.9639 50.8567 39.9893 50.8821 39.9982 50.9107L40.963 53.9977C41.3421 55.2113 42.4513 56.0269 43.7228 56.0269H47.0594C48.3309 56.0269 49.4401 55.2113 49.8192 53.9978L50.784 50.9107C50.7929 50.8821 50.8183 50.8567 50.8528 50.8413C51.7261 50.4544 52.561 49.9721 53.3345 49.4077C53.3656 49.3849 53.4002 49.3755 53.4297 49.3821L56.5868 50.0905C57.8277 50.369 59.0881 49.8158 59.7237 48.7148L61.392 45.8253C62.0277 44.7239 61.8761 43.3557 61.0147 42.4206L58.8225 40.0405C58.8021 40.0184 58.7929 39.9835 58.7969 39.9446C58.8478 39.4689 58.8738 38.9874 58.8738 38.5134C58.8738 38.0395 58.848 37.5581 58.7969 37.0819C58.7929 37.0433 58.8021 37.0085 58.8225 36.9864L61.0149 34.6062ZM56.0295 37.3783C56.07 37.7561 56.0906 38.138 56.0906 38.5132C56.0906 38.8885 56.0702 39.2704 56.0297 39.6478C55.9401 40.4836 56.2117 41.3141 56.7755 41.9259L58.9677 44.306C58.9998 44.3409 59.0055 44.3919 58.9818 44.4331L57.3133 47.3228C57.2897 47.3637 57.2424 47.3841 57.1964 47.3739L54.0389 46.6656C53.2272 46.4835 52.3721 46.6635 51.6937 47.159C51.0803 47.6064 50.418 47.9891 49.7249 48.2962C48.9576 48.6365 48.3753 49.2867 48.1275 50.0797L47.1628 53.167C47.1487 53.2121 47.1073 53.2426 47.0598 53.2426H43.7232C43.6759 53.2426 43.6343 53.2121 43.6202 53.1668L42.6554 50.0797C42.4077 49.2867 41.8254 48.6365 41.0575 48.296C40.3649 47.9891 39.7026 47.6064 39.0897 47.1594C38.5844 46.7903 37.9813 46.5962 37.3709 46.5962C37.1614 46.5962 36.951 46.6192 36.7433 46.6656L33.5866 47.3739C33.5402 47.385 33.4932 47.3639 33.4695 47.3227L31.8012 44.4331C31.7775 44.3919 31.783 44.3411 31.8153 44.306L34.0076 41.9259C34.5712 41.3139 34.8429 40.4836 34.7535 39.6482C34.713 39.2704 34.6924 38.8885 34.6924 38.5132C34.6924 38.138 34.7128 37.7561 34.7533 37.3787C34.8429 36.5429 34.5712 35.7124 34.0075 35.1006L31.8153 32.7205C31.7832 32.6856 31.7775 32.6345 31.8012 32.5934L33.4697 29.7036C33.4932 29.6626 33.54 29.6417 33.5866 29.6526L36.7441 30.3609C37.5559 30.543 38.4107 30.363 39.0895 29.8677C39.7021 29.4206 40.3644 29.038 41.0575 28.7305C41.8252 28.3904 42.4075 27.7401 42.6554 26.9468L43.6202 23.8595C43.6343 23.8144 43.6757 23.7839 43.7232 23.7839H47.0598C47.1071 23.7839 47.1487 23.8144 47.1628 23.8596L48.1275 26.9468C48.3755 27.7401 48.958 28.3904 49.7253 28.7305C50.4188 29.038 51.0811 29.4206 51.6937 29.8677C52.3725 30.363 53.2272 30.5422 54.0396 30.3609L57.1964 29.6526C57.2428 29.6428 57.2897 29.6626 57.3135 29.7038L58.9818 32.5934C59.0055 32.6345 59 32.6854 58.9677 32.7205L56.7753 35.1006C56.2118 35.7126 55.9399 36.5429 56.0295 37.3783Z" fill="#00F222"/>
</svg>
