<svg width="90" height="90" viewBox="0 0 90 90" fill="none" xmlns="http://www.w3.org/2000/svg">
<rect x="8" y="10" width="74" height="51" fill="#8CEAFF"/>
<path d="M83.1796 2H6.24956C2.80357 2 0 4.80427 0 8.25131V49.9529C0 51.6424 2.62 51.6424 2.62 49.9529V8.25131C2.62 6.24893 4.24823 4.62 6.24956 4.62H83.1796C85.1809 4.62 86.8092 6.24893 86.8092 8.25131V61.8896C86.8092 63.8909 85.1809 65.519 83.1796 65.519H6.24956C4.24823 65.519 2.62 63.8909 2.62 61.8896V49.9529C2.62 48.2634 0 48.2634 0 49.9529V61.8898C0 65.3358 2.80357 68.1392 6.24956 68.1392H32.5302L32.1269 70.1559C31.4923 73.3287 29.9478 76.2147 27.6598 78.5026L26.5285 79.6341H21.4246C19.924 79.6341 18.7033 80.8549 18.7033 82.3554V85.1798C18.7033 86.6803 19.924 87.9011 21.4246 87.9011H68.0046C69.5052 87.9011 70.7259 86.6803 70.7259 85.1798V82.3554C70.7259 80.8549 69.5052 79.6341 68.0046 79.6341H62.901L61.7694 78.5025C59.4816 76.2147 57.937 73.3287 57.3024 70.1559L56.8991 68.1392H83.1796C86.6256 68.1392 89.4292 65.3356 89.4292 61.8898V8.25131C89.4292 4.80427 86.6256 2 83.1796 2ZM54.7331 70.6696C55.4045 74.0261 56.9561 77.1046 59.2362 79.634H41.1234C40.4 79.634 39.8134 80.2203 39.8134 80.944C39.8134 81.6676 40.4 82.254 41.1234 82.254H68.0046C68.0605 82.254 68.1059 82.2994 68.1059 82.3553V85.1796C68.1059 85.2355 68.0605 85.2809 68.0046 85.2809H21.4246C21.3687 85.2809 21.3233 85.2355 21.3233 85.1796V82.3553C21.3233 82.2994 21.3687 82.254 21.4246 82.254H41.1234C41.8469 82.254 39.8134 81.6676 39.8134 80.944C39.8134 80.2203 41.8469 79.634 41.1234 79.634H30.193C32.4731 77.1044 34.0248 74.0261 34.6961 70.6696L35.2021 68.1392H54.2271L54.7331 70.6696Z" fill="#9B5DE5"/>
<path d="M83.7822 21.056V8.95691C83.7822 8.23327 83.1959 7.64691 82.4722 7.64691H6.95697C6.2335 7.64691 5.64697 8.23327 5.64697 8.95691V61.1822C5.64697 61.9058 6.2335 62.4922 6.95697 62.4922H82.4722C83.1959 62.4922 83.7822 61.9058 83.7822 61.1822V21.056C83.7822 19.3665 81.1622 19.3665 81.1622 21.056V59.8722H53.0588L50.1212 51.3535L55.2837 46.8167C55.7266 46.4274 55.855 45.7897 55.5967 45.2594L45.8924 25.3214C45.673 24.8708 45.2159 24.5847 44.7146 24.5847C44.2133 24.5847 43.756 24.8708 43.5366 25.3214L33.8324 45.2592C33.5742 45.7895 33.7024 46.4272 34.1455 46.8165L39.3078 51.3532L36.3703 59.872H8.26697V10.2667H81.1622V21.056C81.1622 22.7456 83.7822 22.7456 83.7822 21.056ZM43.4046 31.5795V41.5247C42.9136 41.9124 42.5973 42.5117 42.5973 43.1859C42.5973 44.3553 43.5452 45.3032 44.7146 45.3032C45.884 45.3032 46.8319 44.3553 46.8319 43.1859C46.8319 42.5117 46.5158 41.9123 46.0246 41.5247V31.5795L52.8037 45.5078L48.1024 49.6393H41.3266L36.6251 45.5078L43.4046 31.5795ZM41.7669 52.2595H47.6624L50.2875 59.8722H39.1419L41.7669 52.2595Z" fill="#9B5DE5"/>
<path d="M62.46 42.1273C62.46 44.4064 64.3141 46.2605 66.5929 46.2605C68.872 46.2605 70.7261 44.4064 70.7261 42.1273C70.7261 40.2965 69.5289 38.7407 67.8766 38.1994C67.3657 27.4391 59.429 18.3869 48.8472 16.4842V15.6614C48.8472 14.3552 47.7847 13.2925 46.4785 13.2925H42.9498C41.6436 13.2925 40.5811 14.3552 40.5811 15.6614V16.4842C29.9993 18.387 22.0628 27.4391 21.5519 38.1994C19.8996 38.7407 18.7024 40.2965 18.7024 42.1273C18.7024 44.4064 20.5565 46.2605 22.8355 46.2605C25.1146 46.2605 26.9687 44.4064 26.9687 42.1273C26.9687 40.3173 25.7984 38.7764 24.1752 38.2185C24.6669 28.878 31.464 21.0093 40.5813 19.1516V19.1902C40.5813 20.4963 41.6438 21.5588 42.9499 21.5588H46.4787C47.7849 21.5588 48.8474 20.4963 48.8474 19.1902V19.1516C57.9646 21.0091 64.7619 28.878 65.2534 38.2185C63.6301 38.7764 62.46 40.3173 62.46 42.1273ZM22.8355 43.6405C22.0013 43.6405 21.3224 42.9615 21.3224 42.1273C21.3224 41.2931 22.0011 40.6144 22.8355 40.6144C23.6699 40.6144 24.3487 41.2931 24.3487 42.1273C24.3487 42.9615 23.6697 43.6405 22.8355 43.6405ZM46.2272 18.9386H43.2011V15.9125H46.2272V18.9386ZM66.5929 40.6144C67.4272 40.6144 68.1061 41.2931 68.1061 42.1273C68.1061 42.9615 67.4272 43.6405 66.5929 43.6405C65.7587 43.6405 65.08 42.9615 65.08 42.1273C65.08 41.2931 65.7586 40.6144 66.5929 40.6144Z" fill="#9B5DE5"/>
</svg>
