<svg width="90" height="90" viewBox="0 0 90 90" fill="none" xmlns="http://www.w3.org/2000/svg">
<rect x="1" y="13.7111" width="86.0444" height="73.3333" fill="#FFCD83"/>
<path d="M82.1548 9.23378C82.9219 9.23378 83.5437 8.61194 83.5437 7.84485C83.5437 7.07777 82.9219 6.45593 82.1548 6.45593C81.3877 6.45593 80.7659 7.07777 80.7659 7.84485C80.7659 8.61194 81.3877 9.23378 82.1548 9.23378Z" fill="#FE5D26"/>
<path d="M76.5994 9.23378C77.3665 9.23378 77.9883 8.61194 77.9883 7.84485C77.9883 7.07777 77.3665 6.45593 76.5994 6.45593C75.8323 6.45593 75.2104 7.07777 75.2104 7.84485C75.2104 8.61194 75.8323 9.23378 76.5994 9.23378Z" fill="#FE5D26"/>
<path d="M71.0435 9.23378C71.8105 9.23378 72.4324 8.61194 72.4324 7.84485C72.4324 7.07777 71.8105 6.45593 71.0435 6.45593C70.2764 6.45593 69.6545 7.07777 69.6545 7.84485C69.6545 8.61194 70.2764 9.23378 71.0435 9.23378Z" fill="#FE5D26"/>
<path d="M85.2806 1H4.71937C2.66839 1 1 2.66839 1 4.71937V85.2806C1 87.3316 2.66839 89 4.71937 89H69.9219C70.634 89 68.6328 88.423 68.6328 87.7109C68.6328 86.9989 70.634 86.4219 69.9219 86.4219H4.71937C4.09014 86.4219 3.57812 85.9099 3.57812 85.2806V14.6898H19.3906C20.1027 14.6898 18.1016 14.1129 18.1016 13.4008C18.1016 12.6887 20.1027 12.1117 19.3906 12.1117H3.57812V4.71937C3.57812 4.09014 4.09014 3.57812 4.71937 3.57812H85.2806C85.9099 3.57812 86.4219 4.09014 86.4219 4.71937V12.1117H19.3906C18.6785 12.1117 18.1016 12.6887 18.1016 13.4008C18.1016 14.1129 18.6785 14.6898 19.3906 14.6898H86.4219V85.2806C86.4219 85.9099 85.9099 86.4219 85.2806 86.4219H69.9219C69.2098 86.4219 68.6328 86.9989 68.6328 87.7109C68.6328 88.423 69.2098 89 69.9219 89H85.2806C87.3316 89 89 87.3316 89 85.2806V4.71937C89 2.66839 87.3316 1 85.2806 1Z" fill="#FE5D26"/>
<path d="M66.3074 68.2223L69.9428 69.42C70.9849 69.7628 72.1411 69.3225 72.69 68.3713L74.2737 65.6284C74.8228 64.6772 74.6269 63.4559 73.8077 62.7246L70.9582 60.1794C71.5551 58.5697 72.0023 56.8966 72.2894 55.2009L76.0326 54.4209C77.1077 54.1968 77.888 53.2372 77.888 52.1393V48.972C77.888 47.8739 77.1077 46.9143 76.0325 46.6902L72.2894 45.9104C72.0025 44.2148 71.5551 42.5418 70.9582 40.9318L73.8076 38.3869C74.6269 37.6554 74.8228 36.4342 74.2737 35.4829L72.69 32.7399C72.1411 31.7888 70.9852 31.3476 69.9424 31.6915L66.3074 32.889C65.2111 31.5681 63.9875 30.3443 62.6664 29.248L63.8641 25.6126C64.2073 24.5699 63.7664 23.4143 62.8155 22.8654L60.0725 21.2817C59.1219 20.7329 57.9003 20.9283 57.1687 21.7475L54.6236 24.5972C53.0138 24.0003 51.3407 23.553 49.645 23.266L48.8651 19.5227C48.6409 18.4477 47.6814 17.6674 46.5834 17.6674H43.4161C42.318 17.6674 41.3584 18.4477 41.1343 19.5229L40.3545 23.266C38.6589 23.5529 36.9859 24.0003 35.376 24.5972L32.8308 21.7475C32.0992 20.9283 30.878 20.7327 29.927 21.2817L27.1841 22.8654C26.2332 23.4143 25.7922 24.5699 26.1356 25.613L27.3331 29.248C26.0122 30.3443 24.7885 31.5679 23.6921 32.889L20.0567 31.6913C19.0145 31.3483 17.8585 31.7888 17.3095 32.7399L15.7262 35.4832C15.177 36.4344 15.373 37.6557 16.1921 38.3871L19.0416 40.9322C18.4447 42.542 17.9975 44.215 17.7105 45.9107L13.9672 46.6907C12.8921 46.9148 12.1118 47.8744 12.1118 48.9723V52.1396C12.1118 53.2378 12.8921 54.1973 13.9674 54.4215L17.7105 55.2013C17.9973 56.8968 18.4447 58.5698 19.0416 60.1798L16.1923 62.7247C15.373 63.4562 15.177 64.6774 15.7262 65.6287L17.3098 68.3717C17.8588 69.3225 19.0141 69.7639 20.0574 69.4201L23.6924 68.2227C24.7888 69.5435 26.0124 70.7673 27.3334 71.8637L26.1358 75.499C25.7926 76.5418 26.2334 77.6973 27.1844 78.2463L29.9273 79.8299C30.8782 80.3787 32.0995 80.1831 32.8312 79.3641L35.3763 76.5144C36.9861 77.1114 38.6591 77.5586 40.3548 77.8456L41.1348 81.5889C41.3589 82.664 42.3185 83.4443 43.4164 83.4443H46.5838C47.6819 83.4443 48.6414 82.664 48.8656 81.5887L49.6454 77.8456C51.3409 77.5588 53.0139 77.1114 54.6239 76.5144L57.169 79.3641C57.9005 80.1833 59.1217 80.3787 60.0728 79.8299L62.8158 78.2463C63.7666 77.6973 64.2076 76.5418 63.8642 75.4987L62.6668 71.8637C63.9873 70.7669 65.2111 69.5434 66.3074 68.2223ZM64.4244 66.4537C63.3704 67.7397 62.184 68.9263 60.898 69.9801C60.1603 70.5846 59.8654 71.6005 60.1645 72.5082L61.3521 76.114L58.9574 77.4965L56.4329 74.6697C55.7957 73.9564 54.7678 73.7041 53.875 74.0417C52.3215 74.6291 50.701 75.0623 49.0589 75.3294C48.1158 75.4827 47.3508 76.2154 47.1559 77.1524L46.3823 80.866H43.6172L42.8436 77.1528C42.6485 76.2152 41.8837 75.4823 40.9409 75.3294C39.2985 75.0621 37.6782 74.629 36.1248 74.0417C35.2316 73.7041 34.2036 73.9563 33.5666 74.6695L31.0421 77.4964L28.6474 76.1138L29.8352 72.508C30.1341 71.6005 29.8392 70.5846 29.1017 69.9803C27.8157 68.9263 26.6291 67.7399 25.5753 66.4539C24.9708 65.7162 23.9549 65.4215 23.0472 65.7203L19.4414 66.908L18.0589 64.5134L20.8857 61.9888C21.599 61.3516 21.8515 60.3236 21.5137 59.4309C20.9263 57.8773 20.4931 56.2569 20.226 54.6148C20.0727 53.6717 19.34 52.9067 18.403 52.7118L14.6894 51.9382V49.1731L18.4026 48.3995C19.3402 48.2044 20.0731 47.4396 20.226 46.4968C20.4933 44.8544 20.9264 43.2341 21.5137 41.6807C21.8516 40.7878 21.5991 39.7597 20.8859 39.1225L18.059 36.5978L19.4416 34.2033L23.0474 35.3911C23.955 35.6893 24.9708 35.3951 25.5751 34.6575C26.6291 33.3716 27.8155 32.185 29.1015 31.1312C29.8392 30.5267 30.1339 29.5109 29.8351 28.6031L28.6474 24.9973L31.0421 23.6147L33.5666 26.4416C34.2038 27.1549 35.2318 27.4073 36.1245 27.0696C37.6781 26.4821 39.2985 26.049 40.9406 25.7819C41.8837 25.6286 42.6487 24.8959 42.8436 23.9588L43.6172 20.2453H46.3823L47.1559 23.9585C47.351 24.8961 48.1159 25.629 49.0586 25.7819C50.701 26.0492 52.3213 26.4823 53.8747 27.0696C54.7679 27.4073 55.7959 27.155 56.4329 26.4417L58.9574 23.6149L61.3521 24.9975L60.1643 28.6032C59.8656 29.5109 60.1603 30.5267 60.8979 31.131C62.1838 32.185 63.3704 33.3714 64.4242 34.6574C65.029 35.3952 66.045 35.6902 66.9523 35.3909L70.5581 34.2033L71.9407 36.5978L69.1138 39.1225C68.4005 39.7597 68.1481 40.7876 68.4858 41.6804C69.0733 43.2339 69.5064 44.8544 69.7735 46.4965C69.9268 47.4395 70.6595 48.2046 71.5966 48.3995L75.3101 49.1731V51.9382L71.5969 52.7118C70.6593 52.9069 69.9264 53.6717 69.7735 54.6145C69.5062 56.2569 69.0731 57.8772 68.4858 59.4306C68.1479 60.3235 68.4004 61.3516 69.1137 61.9888L71.9405 64.5134L70.5579 66.908L66.9521 65.7202C66.0443 65.4216 65.0285 65.7162 64.4244 66.4537Z" fill="#FE5D26"/>
<path d="M51.9015 46.3583C51.7382 42.2738 50.2215 38.3343 47.5863 35.194C46.9433 34.4276 46.0005 33.9879 45.0001 33.9879C43.9996 33.9879 43.0568 34.4276 42.4139 35.194C39.7787 38.3343 38.2619 42.2738 38.0984 46.3583L33.994 48.8451C32.9917 49.4524 32.3691 50.5577 32.3691 51.7295V54.0495C32.3691 55.909 33.882 57.4219 35.7415 57.4219H38.085C38.1156 58.8723 39.3028 60.0433 40.7603 60.0433H40.8458C41.0342 61.7375 41.6427 64.708 43.6105 66.5716C44.0001 66.9405 44.4999 67.1249 44.9999 67.1249C45.4997 67.1249 45.9999 66.9405 46.3895 66.5715C48.3571 64.7078 48.9657 61.7373 49.1539 60.0433H49.2395C50.6972 60.0433 51.8843 58.8723 51.9148 57.4219H54.2583C56.1178 57.4219 57.6306 55.909 57.6306 54.0495V51.7295C57.6306 50.5577 57.0081 49.4524 56.0057 48.845L51.9015 46.3583ZM34.9474 54.0495V51.7295C34.9474 51.4535 35.0942 51.1931 35.3304 51.0501L38.0824 49.3828V54.8439H35.7418C35.3037 54.8437 34.9474 54.4875 34.9474 54.0495ZM45.0001 64.284C43.9973 63.0448 43.6001 61.2492 43.4427 60.0433H46.5574C46.4 61.2497 46.0028 63.0451 45.0001 64.284ZM49.3397 57.3653C49.3397 57.4203 49.2949 57.4652 49.2397 57.4652H40.7604C40.7052 57.4652 40.6604 57.4203 40.6604 57.3653V47.0944C40.6604 43.3541 41.9845 39.7163 44.3887 36.8512C44.5968 36.6032 44.861 36.566 45.0001 36.566C45.1391 36.566 45.4033 36.6032 45.6114 36.8512C48.0156 39.7163 49.3397 43.3541 49.3397 47.0944V57.3653ZM55.0527 54.0495C55.0527 54.4875 54.6964 54.8437 54.2585 54.8437H51.9179V49.3826L54.6699 51.05C54.9061 51.1931 55.0529 51.4535 55.0529 51.7295V54.0495H55.0527Z" fill="#FE5D26"/>
<path d="M45 47.7778C45.7671 47.7778 46.3889 47.156 46.3889 46.3889C46.3889 45.6218 45.7671 45 45 45C44.2329 45 43.6111 45.6218 43.6111 46.3889C43.6111 47.156 44.2329 47.7778 45 47.7778Z" fill="#FE5D26"/>
</svg>
