<svg width="9" height="16" viewBox="0 0 9 16" fill="none" xmlns="http://www.w3.org/2000/svg">
<path d="M6.76646 14.9333L0.699788 8.86662C0.588677 8.73328 0.505567 8.59417 0.450456 8.44928C0.394456 8.30528 0.366455 8.15551 0.366455 7.99995C0.366455 7.8444 0.394456 7.68884 0.450456 7.53328C0.505567 7.37773 0.588677 7.2444 0.699788 7.13329L6.76646 1.06662C7.0109 0.822174 7.29979 0.699951 7.63312 0.699951C7.96646 0.699951 8.25534 0.822174 8.49979 1.06662C8.74423 1.31106 8.86646 1.60528 8.86646 1.94928C8.86646 2.29417 8.74423 2.58884 8.49979 2.83328L3.33312 7.99995L8.49979 13.1666C8.74423 13.4111 8.86646 13.7 8.86646 14.0333C8.86646 14.3666 8.74423 14.6555 8.49979 14.9C8.25534 15.1444 7.96646 15.2666 7.63312 15.2666C7.29979 15.2666 7.0109 15.1555 6.76646 14.9333Z" fill="#3C3C3C"/>
</svg>
