<svg width="10" height="6" viewBox="0 0 10 6" fill="none" xmlns="http://www.w3.org/2000/svg">
<path d="M4.99985 5.15625C4.91235 5.15625 4.82485 5.1405 4.73735 5.109C4.64985 5.078 4.57485 5.03125 4.51235 4.96875L1.1186 1.55625C0.981103 1.43125 0.912354 1.26875 0.912354 1.06875C0.912354 0.86875 0.981103 0.70625 1.1186 0.58125C1.2436 0.44375 1.4061 0.378 1.6061 0.384C1.8061 0.3905 1.97485 0.45625 2.11235 0.58125L4.99985 3.4875L7.9061 0.58125C8.0311 0.44375 8.1936 0.375 8.3936 0.375C8.5936 0.375 8.76235 0.44375 8.89985 0.58125C9.02485 0.70625 9.08735 0.86875 9.08735 1.06875C9.08735 1.26875 9.02485 1.43125 8.89985 1.55625L5.48735 4.96875C5.41235 5.04375 5.33435 5.09375 5.25335 5.11875C5.17185 5.14375 5.08735 5.15625 4.99985 5.15625Z" fill="white"/>
</svg>
