<svg width="24" height="25" viewBox="0 0 24 25" fill="none" xmlns="http://www.w3.org/2000/svg">
<path fill-rule="evenodd" clip-rule="evenodd" d="M0 12.4692C0 5.84182 5.37258 0.469238 12 0.469238C18.6274 0.469238 24 5.84182 24 12.4692C24 19.0967 18.6274 24.4692 12 24.4692C5.37258 24.4692 0 19.0967 0 12.4692ZM12 6.46924C15.3 6.46924 18 9.16924 18 12.4692C18 15.4692 15.825 18.0192 12.825 18.4692V14.1942H14.25L14.55 12.4692H12.9V11.3442C12.9 10.8942 13.125 10.4442 13.875 10.4442H14.625V8.94424C14.625 8.94424 13.95 8.79424 13.275 8.79424C11.925 8.79424 11.025 9.61924 11.025 11.1192V12.4692H9.525V14.1942H11.025V18.3942C8.175 17.9442 6 15.4692 6 12.4692C6 9.16924 8.7 6.46924 12 6.46924Z" fill="#BBBBBB"/>
</svg>
