<svg width="24" height="25" viewBox="0 0 24 25" fill="none" xmlns="http://www.w3.org/2000/svg">
<path d="M12 14.5692C10.875 14.5692 9.9 13.6692 9.9 12.4692C9.9 11.3442 10.8 10.3692 12 10.3692C13.125 10.3692 14.1 11.2692 14.1 12.4692C14.1 13.5942 13.125 14.5692 12 14.5692Z" fill="#BBBBBB"/>
<path fill-rule="evenodd" clip-rule="evenodd" d="M14.55 7.36924H9.45C8.85 7.44424 8.55 7.51924 8.325 7.59424C8.025 7.66924 7.8 7.81924 7.575 8.04424C7.39696 8.22228 7.31284 8.40032 7.21116 8.61552C7.18437 8.67223 7.15628 8.73168 7.125 8.79424C7.1134 8.82904 7.1 8.86565 7.08564 8.90488C7.00718 9.11924 6.9 9.41206 6.9 9.91924V15.0192C6.975 15.6192 7.05 15.9192 7.125 16.1442C7.2 16.4442 7.35 16.6692 7.575 16.8942C7.75304 17.0723 7.93108 17.1564 8.14628 17.2581C8.20304 17.2849 8.26239 17.3129 8.325 17.3442C8.35981 17.3558 8.39641 17.3692 8.43564 17.3836C8.65 17.4621 8.94282 17.5692 9.45 17.5692H14.55C15.15 17.4942 15.45 17.4192 15.675 17.3442C15.975 17.2692 16.2 17.1192 16.425 16.8942C16.603 16.7162 16.6872 16.5382 16.7888 16.323C16.8156 16.2662 16.8437 16.2068 16.875 16.1442C16.8866 16.1094 16.9 16.0728 16.9144 16.0336C16.9928 15.8192 17.1 15.5264 17.1 15.0192V9.91924C17.025 9.31924 16.95 9.01924 16.875 8.79424C16.8 8.49424 16.65 8.26924 16.425 8.04424C16.247 7.8662 16.0689 7.78208 15.8537 7.6804C15.797 7.65362 15.7375 7.62549 15.675 7.59424C15.6402 7.58263 15.6036 7.56924 15.5644 7.55488C15.35 7.47642 15.0572 7.36924 14.55 7.36924ZM12 9.24424C10.2 9.24424 8.775 10.6692 8.775 12.4692C8.775 14.2692 10.2 15.6942 12 15.6942C13.8 15.6942 15.225 14.2692 15.225 12.4692C15.225 10.6692 13.8 9.24424 12 9.24424ZM16.05 9.16924C16.05 9.58345 15.7142 9.91924 15.3 9.91924C14.8858 9.91924 14.55 9.58345 14.55 9.16924C14.55 8.75502 14.8858 8.41924 15.3 8.41924C15.7142 8.41924 16.05 8.75502 16.05 9.16924Z" fill="#BBBBBB"/>
<path fill-rule="evenodd" clip-rule="evenodd" d="M0 12.4692C0 5.84182 5.37258 0.469238 12 0.469238C18.6274 0.469238 24 5.84182 24 12.4692C24 19.0967 18.6274 24.4692 12 24.4692C5.37258 24.4692 0 19.0967 0 12.4692ZM9.45 6.24424H14.55C15.225 6.31924 15.675 6.39424 16.05 6.54424C16.5 6.76924 16.8 6.91924 17.175 7.29424C17.55 7.66924 17.775 8.04424 17.925 8.41924C18.075 8.79424 18.225 9.24424 18.225 9.91924V15.0192C18.15 15.6942 18.075 16.1442 17.925 16.5192C17.7 16.9692 17.55 17.2692 17.175 17.6442C16.8 18.0192 16.425 18.2442 16.05 18.3942C15.675 18.5442 15.225 18.6942 14.55 18.6942H9.45C8.775 18.6192 8.325 18.5442 7.95 18.3942C7.5 18.1692 7.2 18.0192 6.825 17.6442C6.45 17.2692 6.225 16.8942 6.075 16.5192C5.925 16.1442 5.775 15.6942 5.775 15.0192V9.91924C5.85 9.24424 5.925 8.79424 6.075 8.41924C6.3 7.96924 6.45 7.66924 6.825 7.29424C7.2 6.91924 7.575 6.69424 7.95 6.54424C8.325 6.39424 8.775 6.24424 9.45 6.24424Z" fill="#BBBBBB"/>
</svg>
