<svg width="24" height="25" viewBox="0 0 24 25" fill="none" xmlns="http://www.w3.org/2000/svg">
<path fill-rule="evenodd" clip-rule="evenodd" d="M0 12.4692C0 5.84182 5.37258 0.469238 12 0.469238C18.6274 0.469238 24 5.84182 24 12.4692C24 19.0967 18.6274 24.4692 12 24.4692C5.37258 24.4692 0 19.0967 0 12.4692ZM6.15 10.4442V18.4692H8.7V10.4442H6.15ZM6 7.89424C6 8.71924 6.6 9.31924 7.425 9.31924C8.25 9.31924 8.85 8.71924 8.85 7.89424C8.85 7.06924 8.25 6.46924 7.425 6.46924C6.675 6.46924 6 7.06924 6 7.89424ZM15.45 18.4692H17.85V13.5192C17.85 11.0442 16.35 10.2192 14.925 10.2192C13.65 10.2192 12.75 11.0442 12.525 11.5692V10.4442H10.125V18.4692H12.675V14.1942C12.675 13.0692 13.425 12.4692 14.175 12.4692C14.925 12.4692 15.45 12.8442 15.45 14.1192V18.4692Z" fill="#BBBBBB"/>
</svg>
