<svg width="40" height="46" viewBox="0 0 40 46" fill="none" xmlns="http://www.w3.org/2000/svg">
<path d="M40 0.599976L36.3559 41.4232L19.9755 45.9643L3.64024 41.4296L0 0.599976H40Z" fill="#264DE4"/>
<path d="M33.2357 38.8235L36.3498 3.93823H19.9995V42.4931L33.2357 38.8235Z" fill="#2965F1"/>
<path d="M8.34497 19.0814L8.79379 24.0889H19.9998V19.0814H8.34497Z" fill="#EBEBEB"/>
<path d="M19.9995 8.9458H19.9822H7.44287L7.89808 13.9534H19.9995V8.9458Z" fill="#EBEBEB"/>
<path d="M19.9996 37.2966V32.0866L19.9777 32.0924L14.4007 30.5866L14.0442 26.5928H11.3342H9.01733L9.71889 34.4554L19.9765 37.303L19.9996 37.2966Z" fill="#EBEBEB"/>
<path d="M26.1487 24.0888L25.5674 30.5833L19.9824 32.0907V37.3005L30.2482 34.4553L30.3236 33.6093L31.5003 20.4259L31.6225 19.0813L32.5265 8.9458H19.9824V13.9534H27.0386L26.583 19.0813H19.9824V24.0888H26.1487Z" fill="white"/>
</svg>
