<svg width="40" height="52" viewBox="0 0 40 52" fill="none" xmlns="http://www.w3.org/2000/svg">
<path d="M17.9926 0.400024H26.3438V38.6764C22.0662 39.4856 18.9171 39.8039 15.5099 39.8039C5.31001 39.7933 0.000488281 35.2364 0.000488281 26.4847C0.000488281 18.0525 5.63244 12.58 14.3598 12.58C15.7141 12.58 16.7459 12.6865 17.9926 13.0058V0.400024ZM18.2853 19.9037C17.3072 19.5842 16.5012 19.4778 15.4693 19.4778C11.2454 19.4778 8.80564 22.0543 8.80564 26.5695C8.80564 30.9657 11.138 33.3931 15.4157 33.3931C16.3399 33.3931 17.0923 33.341 18.2853 33.1813V19.9037Z" fill="#2BA977"/>
<path d="M40.0001 13.6076V32.772C40.0001 39.3719 39.5057 42.5457 38.0547 45.2821C36.7004 47.9128 34.9163 49.5716 31.2298 51.4039L23.4805 47.7521C27.167 46.0389 28.9511 44.525 30.0905 42.2147C31.2834 39.8522 31.6596 37.1158 31.6596 29.9186V13.6077H40.0001V13.6076ZM30.818 0.400024H39.1692V8.88556H30.818V0.400024Z" fill="#2BA977"/>
</svg>
