<svg width="62" height="44" viewBox="0 0 62 44" fill="none" xmlns="http://www.w3.org/2000/svg">
<path d="M60.6314 16.8235C60.467 16.6929 58.9319 15.5338 55.6947 15.5338C54.8399 15.5375 53.9869 15.6108 53.144 15.7531C52.5174 11.4586 48.9669 9.36476 48.8077 9.27083L47.9384 8.76953L47.3667 9.59454C46.6507 10.7028 46.128 11.9245 45.8212 13.2077C45.2416 15.6591 45.5941 17.9616 46.8393 19.9301C45.3356 20.7681 42.9234 20.9744 42.4352 20.9926H2.49748C1.45432 20.9941 0.607841 21.8371 0.602156 22.8801C0.555573 26.3789 1.14834 29.8568 2.35128 33.1426C3.72706 36.7505 5.77385 39.4082 8.43673 41.0346C11.4207 42.862 16.2687 43.9063 21.7641 43.9063C24.2467 43.9141 26.7246 43.6894 29.1653 43.2354C32.5582 42.6124 35.823 41.4265 38.8247 39.7266C41.298 38.2943 43.524 36.4722 45.4166 34.3304C48.5807 30.7486 50.4657 26.7595 51.8675 23.2143H52.4262C55.8905 23.2143 58.0209 21.828 59.1957 20.6663C59.9764 19.9254 60.5859 19.0228 60.9813 18.0217L61.2294 17.296L60.6314 16.8235Z" fill="#2496ED"/>
<path d="M6.19897 19.823H11.5508C11.8089 19.823 12.0181 19.6137 12.0181 19.3557V14.5886C12.0195 14.3304 11.8115 14.1201 11.5534 14.1187C11.5526 14.1187 11.5516 14.1187 11.5508 14.1187H6.19897C5.94085 14.1187 5.73169 14.3279 5.73169 14.5859V14.5886V19.3556C5.73169 19.6137 5.94085 19.823 6.19897 19.823Z" fill="#2496ED"/>
<path d="M13.5747 19.823H18.9266C19.1847 19.823 19.3938 19.6137 19.3938 19.3557V14.5886C19.3953 14.3304 19.1872 14.1201 18.9291 14.1187C18.9283 14.1187 18.9273 14.1187 18.9265 14.1187H13.5746C13.3151 14.1187 13.1047 14.329 13.1047 14.5886V19.3556C13.1063 19.6141 13.3162 19.823 13.5747 19.823Z" fill="#2496ED"/>
<path d="M21.0618 19.823H26.4137C26.6718 19.823 26.8809 19.6137 26.8809 19.3557V14.5886C26.8824 14.3304 26.6743 14.1201 26.4162 14.1187C26.4154 14.1187 26.4144 14.1187 26.4136 14.1187H21.0618C20.8036 14.1187 20.5945 14.3279 20.5945 14.5859V14.5886V19.3556C20.5946 19.6137 20.8038 19.823 21.0618 19.823Z" fill="#2496ED"/>
<path d="M28.4602 19.823H33.812C34.0706 19.823 34.2805 19.6142 34.2819 19.3557V14.5886C34.2819 14.329 34.0716 14.1187 33.812 14.1187H28.4602C28.2021 14.1187 27.9929 14.3279 27.9929 14.5859V14.5886V19.3556C27.9929 19.6137 28.2022 19.823 28.4602 19.823Z" fill="#2496ED"/>
<path d="M13.5746 12.965H18.9265C19.1849 12.9635 19.3937 12.7535 19.3937 12.4951V7.72802C19.3937 7.4699 19.1845 7.26074 18.9265 7.26074H13.5746C13.3162 7.26074 13.1062 7.46948 13.1047 7.72802V12.4951C13.1062 12.754 13.3157 12.9635 13.5746 12.965Z" fill="#2496ED"/>
<path d="M21.0618 12.965H26.4136C26.672 12.9635 26.8809 12.7535 26.8809 12.4951V7.72802C26.8809 7.4699 26.6716 7.26074 26.4136 7.26074H21.0618C20.8036 7.26074 20.5945 7.46999 20.5945 7.72802V12.4951C20.5945 12.7535 20.8033 12.9635 21.0618 12.965Z" fill="#2496ED"/>
<path d="M28.4602 12.965H33.812C34.071 12.9635 34.2805 12.754 34.2819 12.4951V7.72802C34.2805 7.46948 34.0706 7.26074 33.812 7.26074H28.4602C28.2021 7.26074 27.9929 7.46999 27.9929 7.72802V12.4951C27.9929 12.7535 28.2017 12.9635 28.4602 12.965Z" fill="#2496ED"/>
<path d="M28.4602 6.10433H33.812C34.0706 6.10433 34.2805 5.89551 34.2819 5.63705V0.867301C34.2805 0.608759 34.0706 0.400024 33.812 0.400024H28.4602C28.2021 0.400024 27.9929 0.609183 27.9929 0.867301V5.63696C27.9929 5.89508 28.2022 6.10433 28.4602 6.10433Z" fill="#2496ED"/>
<path d="M35.9246 19.823H41.2764C41.5349 19.823 41.7448 19.6142 41.7463 19.3557V14.5886C41.7463 14.329 41.5359 14.1187 41.2764 14.1187H35.9246C35.6665 14.1187 35.4573 14.3279 35.4573 14.5859V14.5886V19.3556C35.4573 19.6137 35.6665 19.823 35.9246 19.823Z" fill="#2496ED"/>
</svg>
