<svg width="31" height="46" viewBox="0 0 31 46" fill="none" xmlns="http://www.w3.org/2000/svg">
<path d="M7.66667 46.0001C11.8987 46.0001 15.3333 42.5654 15.3333 38.3334V30.6667H7.66667C3.43467 30.6667 0 34.1014 0 38.3334C0 42.5654 3.43467 46.0001 7.66667 46.0001Z" fill="#0ACF83"/>
<path d="M0 22.9999C0 18.7679 3.43467 15.3333 7.66667 15.3333H15.3333V30.6666H7.66667C3.43467 30.6666 0 27.2319 0 22.9999Z" fill="#A259FF"/>
<path d="M0 7.66666C0 3.43466 3.43467 0 7.66667 0H15.3333V15.3333H7.66667C3.43467 15.3333 0 11.8987 0 7.66666Z" fill="#F24E1E"/>
<path d="M15.3335 0H23.0002C27.2322 0 30.6669 3.43466 30.6669 7.66666C30.6669 11.8987 27.2322 15.3333 23.0002 15.3333H15.3335V0Z" fill="#FF7262"/>
<path d="M30.6669 22.9999C30.6669 27.2319 27.2322 30.6666 23.0002 30.6666C18.7682 30.6666 15.3335 27.2319 15.3335 22.9999C15.3335 18.7679 18.7682 15.3333 23.0002 15.3333C27.2322 15.3333 30.6669 18.7679 30.6669 22.9999Z" fill="#1ABCFE"/>
</svg>
