<svg width="47" height="46" viewBox="0 0 47 46" fill="none" xmlns="http://www.w3.org/2000/svg">
<path d="M23.5001 0C10.523 0 0 10.5579 0 23.5822C0 34.0016 6.73348 42.8412 16.0709 45.9595C17.2453 46.1777 17.6765 45.4479 17.6765 44.825C17.6765 44.2627 17.6546 42.4049 17.6447 40.4344C11.1067 41.861 9.72718 37.652 9.72718 37.652C8.6582 34.9262 7.11794 34.2016 7.11794 34.2016C4.98588 32.7379 7.27866 32.7678 7.27866 32.7678C9.63853 32.9343 10.8811 35.1981 10.8811 35.1981C12.9771 38.8034 16.3786 37.761 17.7197 37.1586C17.9305 35.6342 18.5396 34.594 19.2116 34.0052C13.9921 33.4087 8.50486 31.3866 8.50486 22.3506C8.50486 19.7761 9.42289 17.6723 10.9263 16.0209C10.6823 15.4268 9.87795 13.0283 11.1539 9.78004C11.1539 9.78004 13.1273 9.14622 17.6181 12.1974C19.4925 11.6747 21.5029 11.4128 23.5001 11.4039C25.4972 11.4128 27.5091 11.6747 29.3872 12.1974C33.8727 9.14622 35.8433 9.78004 35.8433 9.78004C37.1224 13.0283 36.3177 15.4268 36.0737 16.0209C37.5804 17.6723 38.4922 19.7759 38.4922 22.3506C38.4922 31.4081 32.9947 33.4026 27.7618 33.9863C28.6047 34.7181 29.3557 36.1534 29.3557 38.3534C29.3557 41.5086 29.3284 44.0482 29.3284 44.825C29.3284 45.4525 29.7514 46.1879 30.9428 45.9563C40.275 42.8346 47 33.9981 47 23.5822C47 10.5579 36.4785 0 23.5001 0Z" fill="#161614"/>
</svg>
