<svg width="52" height="48" viewBox="0 0 52 48" fill="none" xmlns="http://www.w3.org/2000/svg">
<path d="M25.9997 47.9011L35.5744 18.4333H16.4248L25.9995 47.9011H25.9997Z" fill="#E24329"/>
<path d="M26.0003 47.9008L16.4254 18.433H3.00684L26.0003 47.9008Z" fill="#FC6D26"/>
<path d="M3.00661 18.433L0.0970394 27.3882C-0.032329 27.7863 -0.0323469 28.2151 0.0969884 28.6132C0.226324 29.0114 0.478372 29.3583 0.817012 29.6044L26 47.9009L3.0064 18.4332L3.00661 18.433Z" fill="#FCA326"/>
<path d="M3.00684 18.4332H16.4253L10.6588 0.684885C10.3621 -0.228397 9.07011 -0.228193 8.77354 0.684885L3.00684 18.4332Z" fill="#E24329"/>
<path d="M25.9997 47.9008L35.5744 18.433H48.9932L25.9995 47.9008H25.9997Z" fill="#FC6D26"/>
<path d="M48.9934 18.433L51.9029 27.3882C52.0323 27.7863 52.0323 28.2151 51.9029 28.6133C51.7735 29.0114 51.5214 29.3583 51.1828 29.6044L26 47.9009L48.9934 18.4332V18.433Z" fill="#FCA326"/>
<path d="M48.9939 18.4332H35.5752L41.3419 0.684885C41.6387 -0.228397 42.9306 -0.228193 43.2272 0.684885L48.9939 18.4332Z" fill="#E24329"/>
</svg>
