<svg width="45" height="45" viewBox="0 0 45 45" fill="none" xmlns="http://www.w3.org/2000/svg">
<path d="M11.25 15L11.25 30H26.25V15L11.25 15Z" fill="white"/>
<path d="M2.8125 15.9375V29.0625L7.5 30L12.1875 29.0625V15.9375L7.5 15L2.8125 15.9375Z" fill="#1E88E5"/>
<path d="M34.6875 22.5V35.625C34.6875 37.1784 33.4284 38.4375 31.875 38.4375H12.1875L11.25 33.75L12.1875 29.0625H25.3125V22.5L30 21.5625L34.6875 22.5Z" fill="#4CAF50"/>
<path d="M34.6875 9.375V22.5H25.3125V15.9375H12.1875L11.25 11.25L12.1875 6.5625H31.875C33.4284 6.5625 34.6875 7.82156 34.6875 9.375Z" fill="#FBC02D"/>
<path d="M12.1875 29.0625V38.4375H5.625C4.07156 38.4375 2.8125 37.1784 2.8125 35.625V29.0625H12.1875Z" fill="#1565C0"/>
<path d="M12.1875 6.5625V15.9375H2.8125L12.1875 6.5625Z" fill="#E53935"/>
<path d="M35.625 22.5L34.6875 30.4219L25.3125 22.5L34.6875 14.5781L35.625 22.5Z" fill="#2E7D32"/>
<path d="M43.125 9.47816V35.5219C43.125 36.3094 42.2062 36.75 41.5969 36.2532L34.6875 30.4219V14.5782L41.5969 8.74691C42.2062 8.25003 43.125 8.69066 43.125 9.47816Z" fill="#4CAF50"/>
</svg>
