<svg width="41" height="56" viewBox="0 0 41 56" fill="none" xmlns="http://www.w3.org/2000/svg">
<path d="M13.1112 42.8894C13.1112 42.8894 11.0019 44.116 14.6124 44.5311C18.9867 45.03 21.2221 44.9586 26.0426 44.0462C26.0426 44.0462 27.31 44.8408 29.0797 45.5292C18.2738 50.1603 4.6236 45.2608 13.1112 42.8894ZM11.7907 36.8458C11.7907 36.8458 9.42487 38.5972 13.0382 38.9708C17.7108 39.4529 21.4008 39.4923 27.7861 38.2628C27.7861 38.2628 28.6693 39.1581 30.058 39.6478C16.9929 43.4682 2.44073 39.9491 11.7907 36.8458Z" fill="#5790B6"/>
<path d="M22.9222 26.594C25.5848 29.6594 22.2226 32.418 22.2226 32.418C22.2226 32.418 28.9833 28.9279 25.8784 24.5573C22.9786 20.4818 20.7546 18.4565 32.7936 11.4745C32.7936 11.4745 13.8965 16.1941 22.9222 26.5938" fill="#E76F00"/>
<path d="M37.2145 47.3594C37.2145 47.3594 38.7755 48.6455 35.4953 49.6406C29.258 51.5302 9.53479 52.1008 4.05572 49.7159C2.08621 48.8592 5.77974 47.6701 6.94149 47.4205C8.15312 47.1577 8.84563 47.2068 8.84563 47.2068C6.65525 45.6637 -5.31203 50.2366 2.7669 51.546C24.7991 55.119 42.9293 49.9372 37.2145 47.3594ZM14.1257 30.5839C14.1257 30.5839 4.09344 32.9669 10.5732 33.8321C13.309 34.1984 18.763 34.1156 23.8433 33.6898C27.9952 33.3398 32.1642 32.595 32.1642 32.595C32.1642 32.595 30.7002 33.222 29.6411 33.9452C19.4533 36.6247 -0.227716 35.3782 5.43819 32.6374C10.2299 30.3212 14.1259 30.5839 14.1259 30.5839H14.1257ZM32.1228 40.6436C42.4794 35.262 37.6909 30.0904 34.3487 30.7872C33.5294 30.9576 33.1642 31.1053 33.1642 31.1053C33.1642 31.1053 33.4684 30.629 34.0492 30.4228C40.6611 28.0982 45.7462 37.2788 31.9147 40.9148C31.9147 40.915 32.075 40.7718 32.1228 40.6436Z" fill="#5790B6"/>
<path d="M25.8787 0.199989C25.8787 0.199989 31.6142 5.93766 20.4387 14.7601C11.4772 21.8374 18.3952 25.8726 20.4351 30.4831C15.204 25.7635 11.3651 21.6087 13.9406 17.7419C17.7206 12.0655 28.1927 9.31345 25.8787 0.199829" fill="#E76F00"/>
<path d="M15.1434 55.2263C25.0843 55.8628 40.3495 54.8733 40.7111 50.1696C40.7111 50.1696 40.0161 51.9529 32.4955 53.3689C24.0107 54.9655 13.5461 54.7792 7.33936 53.7558C7.33952 53.7558 8.60995 54.8074 15.1436 55.2263" fill="#5790B6"/>
</svg>
