<svg width="45" height="46" viewBox="0 0 45 46" fill="none" xmlns="http://www.w3.org/2000/svg">
<path d="M22.0734 30.5111L14.5688 23L22.0734 15.4889V0L0.640781 21.4513C0.230489 21.8621 0 22.4192 0 23C0 23.5808 0.230489 24.1379 0.640781 24.5487L22.0734 46C22.0734 46 25.3562 43.8095 25.3562 38.3333C25.1864 35.4273 24.0279 32.6669 22.0734 30.5111Z" fill="#2684FF"/>
<path d="M15.7405 21.54L15.8839 21.6835L22.0731 15.4889V0L10.4727 11.6095C11.3449 15.3185 13.1595 18.7391 15.7405 21.54Z" fill="#1D78F2"/>
<path d="M17.3241 20.0264L17.4335 20.136L22.0754 15.49V0L12.3713 9.71038C12.9798 13.5595 14.7016 17.1459 17.3241 20.0264Z" fill="#126AE5"/>
<path d="M22.0735 15.4889V0L14.4136 7.66667C14.5813 11.7357 16.2006 15.6098 18.9778 18.5862L22.0735 15.4889Z" fill="#0B60DA"/>
<path d="M16.6021 7.66667C16.6021 12.8647 20.3303 16.8349 20.5251 17.0375L22.0735 15.4889V0L16.7969 5.28124C16.666 6.0696 16.6008 6.86749 16.6021 7.66667Z" fill="#0154CE"/>
<path d="M22.0736 15.4889L29.5771 23L22.0736 30.5111V46L43.5051 24.5487C43.9154 24.1379 44.1459 23.5808 44.1459 23C44.1459 22.4192 43.9154 21.8621 43.5051 21.4513L22.0736 0C22.0736 0 18.7908 2.19048 18.7908 7.66667C18.9606 10.5727 20.1191 13.3331 22.0736 15.4889Z" fill="#2482FD"/>
<path d="M28.4047 24.46L28.2614 24.3165L22.0732 30.5112V46.0001L33.6726 34.3905C32.8004 30.6816 30.9858 27.2609 28.4047 24.46Z" fill="#1D78F2"/>
<path d="M26.8216 25.9735L26.7121 25.864L22.0713 30.51V46L31.7732 36.2896C31.1646 32.4407 29.4433 28.8544 26.8216 25.9735Z" fill="#126AE5"/>
<path d="M22.0732 30.5112V46L29.7332 38.3333C29.5653 34.2641 27.9456 30.39 25.1679 27.4138L22.0732 30.5112Z" fill="#0B60DA"/>
<path d="M27.5446 38.3333C27.5446 33.1353 23.8164 29.165 23.6206 28.9624L22.0732 30.5111V45.9999L27.3499 40.7187C27.4802 39.9303 27.5454 39.1324 27.5446 38.3333Z" fill="#0154CE"/>
<path d="M22.0735 30.5111L14.5689 23H2.37646V26.2857L22.0735 46C22.0735 46 25.3564 43.8095 25.3564 38.3333C25.1865 35.4273 24.0281 32.6669 22.0735 30.5111Z" fill="#2684FF"/>
</svg>
