<svg width="47" height="47" viewBox="0 0 47 47" fill="none" xmlns="http://www.w3.org/2000/svg">
<path d="M46.2001 0.599976H0.600098V46.2H46.2001V0.599976Z" fill="#F7DF1E"/>
<path d="M31.2318 36.2252C32.1503 37.7249 33.3453 38.8273 35.4588 38.8273C37.2343 38.8273 38.3685 37.9399 38.3685 36.7137C38.3685 35.2444 37.2032 34.724 35.2489 33.8692L34.1777 33.4095C31.0855 32.0922 29.0314 30.4419 29.0314 26.9532C29.0314 23.7394 31.48 21.293 35.3068 21.293C38.0312 21.293 39.9899 22.2412 41.4013 24.7238L38.0645 26.8663C37.3298 25.549 36.5373 25.03 35.3068 25.03C34.0517 25.03 33.2563 25.8262 33.2563 26.8663C33.2563 28.1518 34.0524 28.6722 35.8909 29.4684L36.9622 29.9273C40.6029 31.4885 42.6585 33.0802 42.6585 36.6587C42.6585 40.5166 39.6279 42.6301 35.558 42.6301C31.5785 42.6301 29.0075 40.7338 27.7495 38.2482L31.2318 36.2252ZM16.0947 36.5965C16.7679 37.7908 17.3802 38.8005 18.8524 38.8005C20.2603 38.8005 21.1484 38.2497 21.1484 36.1079V21.5376H25.4333V36.1658C25.4333 40.6028 22.8319 42.6222 19.0348 42.6222C15.604 42.6222 13.6171 40.8467 12.6067 38.7082L16.0947 36.5965Z" fill="black"/>
</svg>
