<svg width="46" height="46" viewBox="0 0 46 46" fill="none" xmlns="http://www.w3.org/2000/svg">
<path d="M45.9998 0H23.0957L1.22461 23H22.9596L23.0612 22.8965L45.9998 0Z" fill="url(#paint0_linear_228_722)"/>
<path d="M46 46H0H46ZM23.0613 22.8965L22.9597 23H23.1648L23.0613 22.8965Z" fill="url(#paint1_linear_228_722)"/>
<path d="M23.0958 0H0V24.288V23H1.22475L23.0958 0Z" fill="url(#paint2_linear_228_722)"/>
<path d="M22.9597 23H1.22475L0 24.288V46L22.9597 23Z" fill="url(#paint3_linear_228_722)"/>
<path d="M23.1648 23H22.9597L0 46H46L23.1648 23Z" fill="url(#paint4_linear_228_722)"/>
<path d="M1.22475 23H0V24.288L1.22475 23Z" fill="url(#paint5_linear_228_722)"/>
<defs>
<linearGradient id="paint0_linear_228_722" x1="-8.21021" y1="42.0377" x2="34.5952" y2="-0.767735" gradientUnits="userSpaceOnUse">
<stop stop-color="#C757BC"/>
<stop offset="0.108" stop-color="#C757BC"/>
<stop offset="0.173" stop-color="#CD5CA9"/>
<stop offset="0.492" stop-color="#E8744F"/>
<stop offset="0.716" stop-color="#F88316"/>
<stop offset="0.823" stop-color="#FF8900"/>
<stop offset="1" stop-color="#FF8900"/>
</linearGradient>
<linearGradient id="paint1_linear_228_722" x1="14.8598" y1="54.2859" x2="35.7239" y2="33.4218" gradientUnits="userSpaceOnUse">
<stop stop-color="#00AFFF"/>
<stop offset="0.296" stop-color="#00AFFF"/>
<stop offset="0.694" stop-color="#5282FF"/>
<stop offset="1" stop-color="#945DFF"/>
</linearGradient>
<linearGradient id="paint2_linear_228_722" x1="-0.485142" y1="12.7126" x2="14.1513" y2="-1.92416" gradientUnits="userSpaceOnUse">
<stop stop-color="#00AFFF"/>
<stop offset="0.296" stop-color="#00AFFF"/>
<stop offset="0.694" stop-color="#5282FF"/>
<stop offset="1" stop-color="#945DFF"/>
</linearGradient>
<linearGradient id="paint3_linear_228_722" x1="-7.95324" y1="42.2945" x2="34.8521" y2="-0.51092" gradientUnits="userSpaceOnUse">
<stop stop-color="#AD4CA4"/>
<stop offset="0.108" stop-color="#AD4CA4"/>
<stop offset="0.173" stop-color="#B25093"/>
<stop offset="0.492" stop-color="#CA6545"/>
<stop offset="0.716" stop-color="#D87213"/>
<stop offset="0.823" stop-color="#DE7700"/>
<stop offset="1" stop-color="#DE7700"/>
</linearGradient>
<linearGradient id="paint4_linear_228_722" x1="14.8598" y1="54.286" x2="35.7239" y2="33.4218" gradientUnits="userSpaceOnUse">
<stop stop-color="#0098DE"/>
<stop offset="0.296" stop-color="#0098DE"/>
<stop offset="0.694" stop-color="#4771DE"/>
<stop offset="1" stop-color="#8151DE"/>
</linearGradient>
<linearGradient id="paint5_linear_228_722" x1="5.26712" y1="18.4648" x2="19.9035" y2="3.82798" gradientUnits="userSpaceOnUse">
<stop stop-color="#0098DE"/>
<stop offset="0.296" stop-color="#0098DE"/>
<stop offset="0.694" stop-color="#4771DE"/>
<stop offset="1" stop-color="#8151DE"/>
</linearGradient>
</defs>
</svg>
