<svg width="51" height="50" viewBox="0 0 51 50" fill="none" xmlns="http://www.w3.org/2000/svg">
<path d="M25.5702 0.71644C25.1276 0.738734 24.694 0.848465 24.2947 1.03919L6.8905 9.35512C6.44004 9.57025 6.04424 9.88327 5.73249 10.2709C5.42074 10.6586 5.20106 11.1109 5.08976 11.5944L0.796018 30.274C0.696869 30.7044 0.685773 31.1502 0.763386 31.5849C0.841 32.0196 1.00575 32.4344 1.24787 32.8049C1.30658 32.8954 1.36973 32.9831 1.43707 33.0675L13.4836 48.0455C13.7954 48.4331 14.1913 48.746 14.6417 48.9611C15.0922 49.1761 15.5857 49.2877 16.0857 49.2876L35.4042 49.2831C35.9039 49.2835 36.3973 49.1722 36.8478 48.9576C37.2982 48.743 37.6942 48.4305 38.0062 48.0433L50.0483 33.0631C50.3603 32.6753 50.5801 32.2228 50.6915 31.7392C50.8028 31.2555 50.8029 30.7532 50.6916 30.2696L46.3911 11.5899C46.2798 11.1065 46.0602 10.6541 45.7484 10.2665C45.4367 9.87881 45.0409 9.56579 44.5904 9.35067L27.1839 1.03919C26.6818 0.799272 26.1269 0.688292 25.5702 0.71644Z" fill="#326CE5"/>
<path d="M25.7426 7.07349C25.1673 7.07354 24.7008 7.59174 24.7009 8.23095C24.7009 8.24076 24.7029 8.25013 24.7031 8.25989C24.7023 8.34674 24.6981 8.45137 24.7009 8.52699C24.7146 8.89567 24.795 9.17784 24.8433 9.51751C24.931 10.2445 25.0044 10.8472 24.9591 11.4073C24.915 11.6185 24.7594 11.8117 24.6207 11.946L24.5963 12.3867C23.9711 12.4385 23.3418 12.5333 22.7132 12.6761C20.0083 13.2902 17.6794 14.6835 15.9064 16.5647C15.7913 16.4862 15.5901 16.3418 15.5302 16.2976C15.3442 16.3227 15.1562 16.3801 14.9114 16.2375C14.4452 15.9237 14.0206 15.4905 13.5069 14.9687C13.2715 14.7191 13.101 14.4814 12.8213 14.2409C12.7578 14.1862 12.6608 14.1123 12.5898 14.0561C12.3711 13.8818 12.1132 13.7908 11.8642 13.7823C11.5439 13.7714 11.2356 13.8966 11.0339 14.1496C10.6753 14.5994 10.7901 15.287 11.2899 15.6855C11.295 15.6895 11.3004 15.6926 11.3055 15.6966C11.3741 15.7523 11.4582 15.8236 11.5214 15.8702C11.8182 16.0893 12.0893 16.2015 12.385 16.3755C13.0081 16.7602 13.5246 17.0793 13.9342 17.4639C14.0942 17.6345 14.1222 17.935 14.1435 18.0649L14.4774 18.3632C12.69 21.0531 11.8628 24.3756 12.3516 27.7609L11.9154 27.8878C11.8004 28.0363 11.6379 28.2699 11.468 28.3396C10.932 28.5085 10.3287 28.5705 9.60043 28.6468C9.25851 28.6752 8.9635 28.6583 8.60101 28.7269C8.52123 28.7421 8.41007 28.771 8.32277 28.7915C8.31974 28.7921 8.3169 28.793 8.31387 28.7937C8.30911 28.7948 8.30286 28.7971 8.29829 28.7982C7.68429 28.9465 7.28985 29.5109 7.41684 30.0669C7.54385 30.6231 8.14359 30.9613 8.76127 30.8282C8.76573 30.8272 8.77221 30.827 8.77685 30.826C8.78383 30.8244 8.78997 30.821 8.79689 30.8193C8.88299 30.8004 8.9909 30.7794 9.06622 30.7592C9.4226 30.6638 9.6807 30.5236 10.0011 30.4008C10.6904 30.1536 11.2612 29.9471 11.8174 29.8666C12.0497 29.8484 12.2944 30.0099 12.4162 30.0781L12.8703 30.0002C13.9152 33.2398 16.105 35.8583 18.8779 37.5014L18.6887 37.9555C18.7569 38.1318 18.8322 38.3704 18.7814 38.5445C18.5792 39.0688 18.2328 39.6223 17.8385 40.2393C17.6475 40.5243 17.4521 40.7455 17.2798 41.0717C17.2385 41.1498 17.186 41.2697 17.1462 41.3522C16.8785 41.925 17.0749 42.5848 17.5892 42.8324C18.1067 43.0816 18.7491 42.8188 19.0271 42.2448C19.0275 42.244 19.0289 42.2434 19.0293 42.2426C19.0296 42.2419 19.029 42.241 19.0293 42.2403C19.0689 42.159 19.125 42.052 19.1584 41.9755C19.306 41.6373 19.3551 41.3476 19.4589 41.0205C19.7345 40.3282 19.886 39.6017 20.2654 39.1491C20.3693 39.0251 20.5387 38.9775 20.7143 38.9304L20.9502 38.5031C23.3676 39.4309 26.0735 39.6799 28.7765 39.0662C29.3931 38.9262 29.9884 38.745 30.5639 38.5275C30.6302 38.6452 30.7534 38.8713 30.7865 38.9282C30.9649 38.9863 31.1597 39.0163 31.3184 39.251C31.6023 39.736 31.7964 40.3097 32.0329 41.0027C32.1368 41.3298 32.1881 41.6195 32.3357 41.9576C32.3693 42.0347 32.4251 42.1432 32.4648 42.2248C32.7422 42.8006 33.3866 43.0643 33.9049 42.8146C34.4192 42.5669 34.6158 41.9072 34.3479 41.3344C34.3081 41.2519 34.2533 41.132 34.2121 41.0539C34.0398 40.7277 33.8444 40.5087 33.6534 40.2237C33.259 39.6067 32.9319 39.0942 32.7297 38.5698C32.6451 38.2994 32.7439 38.1312 32.8098 37.9555C32.7703 37.9103 32.6859 37.6549 32.6362 37.5348C35.5179 35.8333 37.6434 33.1171 38.6416 29.9801C38.7764 30.0013 39.0107 30.0428 39.0868 30.058C39.2435 29.9547 39.3875 29.8199 39.67 29.8421C40.2262 29.9226 40.797 30.1292 41.4863 30.3763C41.8067 30.4991 42.0648 30.6415 42.4212 30.7369C42.4965 30.7571 42.6044 30.7759 42.6905 30.7948C42.6974 30.7965 42.7036 30.7999 42.7105 30.8015C42.7152 30.8025 42.7217 30.8027 42.7261 30.8037C43.3438 30.9367 43.9437 30.5987 44.0706 30.0424C44.1974 29.4864 43.8032 28.9219 43.1891 28.7737C43.0998 28.7534 42.9731 28.7189 42.8864 28.7025C42.5239 28.6338 42.2289 28.6507 41.887 28.6223C41.1587 28.546 40.5555 28.484 40.0194 28.3152C39.8009 28.2304 39.6454 27.9703 39.5698 27.8633L39.1491 27.7409C39.3672 26.1629 39.3084 24.5205 38.931 22.8773C38.55 21.2188 37.8768 19.7019 36.9789 18.3654C37.0868 18.2673 37.2906 18.0869 37.3484 18.0338C37.3653 17.8469 37.3508 17.6509 37.5443 17.4439C37.9539 17.0592 38.4705 16.7402 39.0935 16.3554C39.3892 16.1815 39.6626 16.0693 39.9593 15.8502C40.0265 15.8006 40.1181 15.7221 40.1886 15.6654C40.6883 15.2668 40.8034 14.5793 40.4446 14.1296C40.0858 13.6798 39.3906 13.6375 38.8909 14.0361C38.8198 14.0924 38.7233 14.1659 38.6594 14.2208C38.3797 14.4614 38.207 14.6991 37.9716 14.9487C37.4579 15.4705 37.0333 15.9058 36.5671 16.2197C36.3651 16.3373 36.0692 16.2966 35.9349 16.2887L35.5387 16.5714C33.2794 14.2023 30.2034 12.6876 26.8912 12.3934C26.8819 12.2546 26.8698 12.0037 26.8667 11.9282C26.7311 11.7984 26.5673 11.6876 26.5261 11.4073C26.4808 10.8472 26.5564 10.2445 26.6441 9.51751C26.6924 9.17784 26.7728 8.89567 26.7865 8.52699C26.7897 8.44318 26.7846 8.32157 26.7843 8.23095C26.7842 7.59174 26.3179 7.07343 25.7426 7.07349H25.7426ZM24.4382 15.1535L24.1288 20.618L24.1066 20.6292C24.0858 21.118 23.6835 21.5084 23.1895 21.5084C22.9872 21.5084 22.8004 21.4434 22.6486 21.3325L22.6397 21.337L18.159 18.1606C19.5361 16.8065 21.2975 15.8058 23.3275 15.3449C23.6983 15.2607 24.069 15.1982 24.4382 15.1535ZM27.0492 15.1535C29.4192 15.445 31.611 16.5181 33.2906 18.1629L28.8388 21.3192L28.8232 21.3125C28.4281 21.6011 27.8714 21.5295 27.5634 21.1433C27.4372 20.9851 27.371 20.7991 27.363 20.6114L27.3586 20.6091L27.0492 15.1535ZM16.5341 20.2018L20.6253 23.8611L20.6208 23.8834C20.9901 24.2044 21.0445 24.7615 20.7366 25.1477C20.6104 25.3059 20.4415 25.412 20.2602 25.4616L20.2558 25.4794L15.0116 26.993C14.7447 24.5523 15.3199 22.1798 16.5341 20.2018ZM34.9222 20.204C35.53 21.1893 35.9903 22.2897 36.2644 23.4827C36.5351 24.6615 36.6031 25.8381 36.4914 26.9752L31.2205 25.4571L31.2161 25.4348C30.7441 25.3059 30.454 24.8257 30.5639 24.3442C30.6089 24.1469 30.7136 23.98 30.8555 23.8567L30.8532 23.8456L34.9222 20.204H34.9222ZM24.9034 24.1438H26.5795L27.6212 25.446L27.2473 27.0709L25.7426 27.7943L24.2334 27.0687L23.8595 25.4438L24.9034 24.1438ZM30.2767 28.6001C30.348 28.5965 30.4189 28.6029 30.4882 28.6156L30.4971 28.6045L35.9216 29.5216C35.1277 31.752 33.6086 33.6842 31.5789 34.9772L29.4732 29.8911L29.4799 29.8822C29.2864 29.4327 29.48 28.9057 29.925 28.6913C30.039 28.6365 30.158 28.6061 30.2767 28.6001H30.2767ZM21.1662 28.6223C21.5801 28.6281 21.9514 28.9154 22.0476 29.3368C22.0926 29.5341 22.0707 29.7296 21.9964 29.9022L22.012 29.9222L19.9286 34.9572C17.9807 33.7072 16.4292 31.8357 15.5992 29.5394L20.977 28.6268L20.9859 28.6379C21.046 28.6268 21.107 28.6215 21.1662 28.6223V28.6223ZM25.7092 30.8282C25.8534 30.8229 25.9997 30.8525 26.1388 30.9194C26.3211 31.0072 26.4619 31.1455 26.5506 31.3112H26.5706L29.2217 36.1013C28.8776 36.2167 28.5239 36.3152 28.1621 36.3974C26.1347 36.8577 24.1136 36.7182 22.2836 36.0946L24.9279 31.3134H24.9324C25.091 31.0168 25.392 30.8398 25.7092 30.8282Z" fill="white" stroke="white" stroke-width="0.0178071"/>
</svg>
