<svg width="52" height="52" viewBox="0 0 52 52" fill="none" xmlns="http://www.w3.org/2000/svg">
<g clip-path="url(#clip0_228_888)">
<path d="M3.344 26.0373V13.6272C3.33183 13.4088 3.38479 13.1916 3.49617 13.0033C3.60754 12.815 3.77233 12.6639 3.96962 12.5693L25.3757 0.206347C25.7609 -0.0341532 26.1931 -0.0829043 26.5783 0.157596L48.0802 12.5677C48.2645 12.6738 48.416 12.8287 48.5178 13.0154C48.6196 13.2021 48.6678 13.4132 48.6571 13.6256V38.3987C48.6678 38.6111 48.6196 38.8223 48.5178 39.0089C48.416 39.1956 48.2645 39.3505 48.0802 39.4566L29.6089 50.1328C28.6411 50.7121 27.6627 51.2733 26.6741 51.8163C26.2419 52.0568 25.808 52.0568 25.3741 51.8163L3.92087 39.4533C3.53574 39.2128 3.344 38.9236 3.344 38.4426V26.0325V26.0373Z" fill="#009438"/>
<path d="M18.4958 21.4174V35.8799C18.4958 37.5146 17.1958 38.9576 15.4652 38.9105C14.409 38.8618 13.59 38.4295 13.0277 37.5163C12.7385 37.084 12.6426 36.603 12.6426 36.0733V15.9834C12.6426 14.6346 13.46 13.6759 14.5178 13.242C15.5757 12.8081 16.6336 12.9056 17.6931 13.242C18.7038 13.5313 19.4725 14.1553 20.1306 14.9255L32.9258 30.2704C32.9746 30.3191 33.0233 30.4166 33.1176 30.5109V15.8859C33.1176 14.347 34.1738 13.1445 35.6688 12.9999C37.5441 12.7594 38.7953 14.1049 38.9871 15.5024V35.9774C38.9871 37.1149 38.4573 37.9501 37.4953 38.4799C36.7738 38.865 36.0036 38.9609 35.1878 38.9121C34.0079 38.8336 32.889 38.3589 32.0126 37.565C31.5316 37.1328 31.1952 36.603 30.7613 36.122L18.5901 21.5458C18.5901 21.497 18.5413 21.4483 18.4926 21.3995L18.4958 21.4174Z" fill="#FEFEFE"/>
</g>
<defs>
<clipPath id="clip0_228_888">
<rect width="52" height="52" fill="white"/>
</clipPath>
</defs>
</svg>
