<svg width="45" height="45" viewBox="0 0 45 45" fill="none" xmlns="http://www.w3.org/2000/svg">
<path d="M28.3447 4.63533L5.33496 6.30174C5.32792 6.30224 5.32089 6.30283 5.31387 6.3035C5.30211 6.30502 5.29039 6.30678 5.27871 6.30877C5.25691 6.31149 5.23522 6.31501 5.21367 6.31932C5.20485 6.32153 5.19606 6.32387 5.1873 6.32635C5.1773 6.32852 5.16734 6.33087 5.15742 6.33338C5.13548 6.33958 5.11379 6.34662 5.09238 6.35447C5.07817 6.35997 5.06411 6.36584 5.0502 6.37205C5.04194 6.37544 5.03374 6.37896 5.02559 6.3826C4.97832 6.40442 4.93303 6.43029 4.89023 6.45994C4.88255 6.46452 4.87493 6.4692 4.86738 6.474C4.84866 6.48794 4.83048 6.5026 4.81289 6.51795C4.80935 6.52144 4.80583 6.52495 4.80234 6.5285C4.78725 6.54148 4.7726 6.55497 4.7584 6.56893C4.74939 6.57869 4.7406 6.58865 4.73203 6.59881C4.71864 6.61361 4.70574 6.62885 4.69336 6.64451C4.6886 6.65031 4.68391 6.65617 4.6793 6.66209C4.6657 6.68034 4.6528 6.69911 4.64062 6.71834C4.63704 6.72416 4.63353 6.73002 4.63008 6.73592C4.61823 6.75483 4.60709 6.77418 4.59668 6.79393C4.59245 6.80207 4.58835 6.81027 4.58437 6.81854C4.57474 6.83986 4.56595 6.86156 4.55801 6.88357C4.55683 6.88591 4.55565 6.88826 4.55449 6.89061C4.53635 6.94144 4.52282 6.9938 4.51406 7.04705C4.51216 7.0564 4.5104 7.06577 4.50879 7.07518C4.50548 7.0991 4.50313 7.12314 4.50176 7.14725V7.15076C4.50072 7.16715 4.50014 7.18356 4.5 7.19998V30.3644C4.5 31.2875 4.78364 32.1902 5.31387 32.9467C5.32773 32.9666 5.34239 32.9859 5.35781 33.0047L10.9143 39.6914C10.9679 39.7879 11.0388 39.8737 11.1234 39.9445L11.475 40.3664C11.5196 40.4201 11.5704 40.4685 11.6262 40.5105C12.1546 41.0232 12.8855 41.3258 13.674 41.2752L37.974 39.7072C39.3862 39.6159 40.5 38.4273 40.5 37.0125V13.6195C40.5 12.7884 40.109 12.0516 39.5139 11.5558C39.4717 11.5076 39.4246 11.464 39.3732 11.4258L38.9373 11.1041C38.8828 11.0522 38.8219 11.0073 38.7562 10.9705L31.3418 5.50193C30.4786 4.86492 29.4144 4.55772 28.3447 4.63533ZM28.4748 6.43006C29.1169 6.38347 29.7557 6.56859 30.273 6.95037L35.7908 11.0215L13.268 12.4963C12.4925 12.5469 11.7339 12.26 11.1832 11.7105H11.1814L7.42852 7.95584L28.4748 6.43006ZM6.3 9.37264L9.91055 12.9832L10.8 13.8726V36.7365L6.78516 31.9043C6.47094 31.4527 6.3 30.9161 6.3 30.3644V9.37264ZM37.742 12.7213C38.2741 12.6871 38.7 13.087 38.7 13.6195V37.0125C38.7 37.4949 38.3394 37.8796 37.858 37.9107L13.558 39.4787C13.2938 39.4956 13.0557 39.4051 12.883 39.2449L12.8812 39.2431L12.8795 39.2414C12.8758 39.2379 12.8743 39.2326 12.8707 39.2291C12.8672 39.2244 12.8637 39.2197 12.8602 39.215C12.701 39.0541 12.6 38.8345 12.6 38.5804V15.1875C12.6 14.7038 12.96 14.3204 13.442 14.2892L37.742 12.7213ZM34.6465 17.1L30.0797 17.3531C29.3831 17.4251 28.5715 17.9442 28.5715 18.7875L30.5965 18.9562V28.5785L23.5934 17.7767L18.3445 18.0721C17.3626 18.144 17.0947 18.8738 17.0947 19.8017H19.1197V33.8097C19.1197 33.8097 18.1727 34.0653 17.8559 34.1472C17.1827 34.3209 17.0947 34.9064 17.0947 35.3285C17.0947 35.3285 20.472 35.159 22.0254 35.042C23.7885 34.907 23.8465 33.7254 23.8465 33.7254L21.8215 33.3035V22.9236C21.8215 22.9236 26.9693 31.1943 28.5434 33.6252C29.2841 34.7673 29.8371 34.991 30.8109 34.991C31.6101 34.991 32.3659 34.7549 33.2947 34.2527V18.6275C33.2947 18.6275 33.4658 18.6184 34.0049 18.4447C34.6196 18.2458 34.6465 17.6904 34.6465 17.1Z" fill="black"/>
<path d="M28.4748 6.43006C29.1169 6.38347 29.7557 6.56859 30.273 6.95037L35.7908 11.0215L13.268 12.4963C12.4925 12.5469 11.7339 12.26 11.1832 11.7105H11.1814L7.42852 7.95584L28.4748 6.43006Z" fill="white"/>
<path d="M6.3 9.37264L9.91055 12.9832L10.8 13.8726V36.7365L6.78516 31.9043C6.47094 31.4527 6.3 30.9161 6.3 30.3644V9.37264Z" fill="white"/>
<path fill-rule="evenodd" clip-rule="evenodd" d="M37.742 12.7213C38.2741 12.6871 38.7 13.087 38.7 13.6195V37.0125C38.7 37.4949 38.3394 37.8796 37.858 37.9107L13.558 39.4787C13.2938 39.4956 13.0557 39.4051 12.883 39.2449L12.8812 39.2431L12.8795 39.2414C12.8758 39.2379 12.8743 39.2326 12.8707 39.2291L12.8602 39.215C12.701 39.0541 12.6 38.8345 12.6 38.5804V15.1875C12.6 14.7038 12.96 14.3204 13.442 14.2892L37.742 12.7213ZM30.0797 17.3531L34.6465 17.1C34.6465 17.6904 34.6196 18.2458 34.0049 18.4447C33.4658 18.6184 33.2947 18.6275 33.2947 18.6275V34.2527C32.3659 34.7549 31.6101 34.991 30.8109 34.991C29.8371 34.991 29.2841 34.7673 28.5434 33.6252C26.9693 31.1943 21.8215 22.9236 21.8215 22.9236V33.3035L23.8465 33.7254C23.8465 33.7254 23.7885 34.907 22.0254 35.042C20.472 35.159 17.0947 35.3285 17.0947 35.3285C17.0947 34.9064 17.1827 34.3209 17.8559 34.1472C18.1727 34.0653 19.1197 33.8097 19.1197 33.8097V19.8017H17.0947C17.0947 18.8738 17.3626 18.144 18.3445 18.0721L23.5934 17.7767L30.5965 28.5785V18.9562L28.5715 18.7875C28.5715 17.9442 29.3831 17.4251 30.0797 17.3531Z" fill="white"/>
</svg>
