<svg width="47" height="47" viewBox="0 0 47 47" fill="none" xmlns="http://www.w3.org/2000/svg">
<path d="M42.0992 9.13653C39.2582 5.45769 35.3901 2.70397 30.984 1.22364C26.5779 -0.256687 21.8318 -0.39713 17.3459 0.820074C12.86 2.03728 8.83581 4.55745 5.78229 8.06187C2.72876 11.5663 0.783063 15.8975 0.191266 20.5078C-0.400531 25.1181 0.388158 29.8003 2.45759 33.9624C4.52701 38.1244 7.78422 41.5792 11.8173 43.89C15.8503 46.2007 20.478 47.2635 25.1152 46.944C29.7523 46.6245 34.1905 44.937 37.8685 42.095C48.135 34.1609 50.0297 19.4067 42.0985 9.13653H42.0992Z" fill="#FF6C37"/>
<path d="M31.4257 14.9732L21.5169 24.9606L18.7168 22.0819C28.4692 12.3294 29.4481 13.2107 31.4264 14.9732H31.4257Z" fill="white"/>
<path d="M21.5172 25.2336C21.4295 25.2314 21.3457 25.1966 21.2822 25.1359L18.4623 22.316C18.3988 22.2502 18.3633 22.1624 18.3633 22.071C18.3633 21.9797 18.3988 21.8919 18.4623 21.8261C28.0773 12.211 29.3897 12.6612 31.6611 14.7174C31.6991 14.7479 31.7295 14.7868 31.7499 14.831C31.7703 14.8752 31.7801 14.9236 31.7786 14.9723C31.7933 15.0677 31.7565 15.1654 31.6809 15.2271L21.7721 25.1367C21.7026 25.2004 21.6115 25.2353 21.5172 25.2343V25.2336ZM19.2062 22.081L21.5172 24.392L30.9171 14.9921C30.5926 14.5854 30.1295 14.3125 29.6164 14.2258C29.1033 14.1391 28.5763 14.2446 28.1361 14.5221C26.4324 15.2858 23.691 17.616 19.2062 22.081Z" fill="#FF6C37"/>
<path d="M24.3568 27.7217L21.6543 24.9605L31.5632 15.1685C34.2268 17.7732 30.2707 22.1207 24.3568 27.7209V27.7217Z" fill="white"/>
<path d="M24.3569 28.0742C24.2702 28.0673 24.1879 28.0331 24.1219 27.9765L21.3607 25.274C21.3192 25.1736 21.3192 25.0609 21.3607 24.9605C21.3313 24.8781 21.3313 24.788 21.3607 24.7056L31.2695 14.7968C31.3384 14.7321 31.4294 14.696 31.524 14.696C31.6185 14.696 31.7095 14.7321 31.7784 14.7968C32.0993 15.0922 32.3528 15.4532 32.5217 15.8553C32.6907 16.2573 32.771 16.6911 32.7573 17.127C32.7573 19.7707 29.7413 23.0996 24.611 27.9567C24.5424 28.0245 24.4522 28.0661 24.3561 28.0742H24.3569ZM22.1633 24.9605L24.376 27.1724C28.2924 23.4712 32.0332 19.6525 32.0523 17.0675C32.0736 16.5195 31.8925 15.9828 31.5434 15.5598L22.1633 24.9605Z" fill="#FF6C37"/>
<path d="M18.7942 22.1407L20.7528 24.0993C20.7653 24.1103 20.7753 24.1239 20.7821 24.1391C20.789 24.1543 20.7925 24.1707 20.7925 24.1874C20.7925 24.2041 20.789 24.2206 20.7821 24.2358C20.7753 24.2509 20.7653 24.2645 20.7528 24.2755L16.6205 25.1568C16.5371 25.1748 16.4501 25.165 16.3727 25.129C16.2953 25.093 16.2319 25.0327 16.1919 24.9573C16.152 24.8818 16.1379 24.7954 16.1516 24.7112C16.1653 24.627 16.2062 24.5495 16.268 24.4907L18.6767 22.1018C18.6767 22.1018 18.7553 22.1018 18.7942 22.1407Z" fill="white"/>
<path d="M16.5235 25.548C16.3929 25.5463 16.265 25.5113 16.1519 25.4461C16.0387 25.3809 15.9442 25.2878 15.8773 25.1757C15.802 25.0336 15.7747 24.871 15.7994 24.7122C15.8242 24.5534 15.8997 24.4068 16.0146 24.2944L18.4035 21.8857C18.4896 21.8087 18.6011 21.7661 18.7167 21.7661C18.8322 21.7661 18.9437 21.8087 19.0299 21.8857L20.9885 23.8442C21.1045 23.9544 21.15 24.1211 21.106 24.2753C21.0619 24.4295 20.9326 24.5522 20.7733 24.5889L16.641 25.4701L16.5235 25.548ZM18.7171 22.5716L16.5044 24.7842L20.1667 24.0007L18.7171 22.5716Z" fill="#FF6C37"/>
<path d="M36.6949 9.46978C35.2776 8.10239 33.051 8.04511 31.5646 9.33539C30.0782 10.6257 29.8241 12.8405 30.9815 14.4341C32.1389 16.0277 34.3207 16.4742 36.0098 15.4622L33.3462 12.7987L36.6949 9.46978Z" fill="white"/>
<path d="M34.0501 16.3625C33.2358 16.3521 32.4426 16.1023 31.7693 15.6442C31.096 15.1861 30.5724 14.54 30.2637 13.7864C29.9552 13.0333 29.8743 12.2064 30.0309 11.4078C30.1876 10.6093 30.5749 9.8742 31.1449 9.29348C31.929 8.52384 32.9838 8.09265 34.0824 8.09265C35.1811 8.09265 36.2359 8.52384 37.0199 9.29348C37.0948 9.35664 37.1374 9.4499 37.1374 9.54831C37.1373 9.59672 37.1267 9.64453 37.1064 9.6885C37.0861 9.73247 37.0566 9.77156 37.0199 9.80314L33.8474 12.7994L36.2562 15.1692C36.2952 15.2064 36.3245 15.2527 36.3415 15.3039C36.3586 15.3551 36.3628 15.4097 36.3539 15.4629C36.3481 15.5143 36.331 15.5637 36.304 15.6077C36.277 15.6518 36.2406 15.6893 36.1974 15.7178C35.5503 16.1222 34.8064 16.3454 34.0435 16.364L34.0501 16.3625ZM34.0501 8.764C32.6548 8.77135 31.4064 9.61073 30.8828 10.8937C30.3592 12.1766 30.6441 13.6534 31.6223 14.639C32.1088 15.1283 32.7318 15.4594 33.4097 15.5887C34.0875 15.718 34.7887 15.6396 35.4212 15.3638L33.1101 13.0527C33.0734 13.0233 33.0437 12.9861 33.0233 12.9437C33.003 12.9013 32.9924 12.8549 32.9924 12.8078C32.9924 12.7608 33.003 12.7143 33.0233 12.6719C33.0437 12.6295 33.0734 12.5923 33.1101 12.5629L36.1651 9.48809C35.5578 9.02267 34.8152 8.76818 34.0501 8.76327V8.764Z" fill="#FF6C37"/>
<path d="M36.753 9.52844L33.4043 12.8573L36.0678 15.5209C36.3359 15.367 36.5855 15.1829 36.8117 14.9723C37.5098 14.2344 37.8939 13.2542 37.8829 12.2385C37.872 11.2228 37.4668 10.2511 36.753 9.52844Z" fill="white"/>
<path d="M36.0075 15.8148C35.9635 15.8172 35.9196 15.8097 35.8789 15.7928C35.8382 15.7759 35.8019 15.75 35.7725 15.7172L33.109 13.0536C33.0722 13.0242 33.0426 12.987 33.0222 12.9446C33.0018 12.9022 32.9912 12.8557 32.9912 12.8087C32.9912 12.7617 33.0018 12.7152 33.0222 12.6728C33.0426 12.6304 33.0722 12.5932 33.109 12.5638L36.4379 9.29363C36.47 9.24516 36.5137 9.2054 36.5649 9.17789C36.6162 9.15038 36.6734 9.13599 36.7316 9.13599C36.7898 9.13599 36.847 9.15038 36.8983 9.17789C36.9495 9.2054 36.9932 9.24516 37.0253 9.29363C37.4161 9.67654 37.7266 10.1336 37.9386 10.638C38.1505 11.1424 38.2597 11.684 38.2597 12.2311C38.2597 12.7782 38.1505 13.3199 37.9386 13.8243C37.7266 14.3287 37.4161 14.7857 37.0253 15.1686C36.7948 15.4131 36.531 15.624 36.2418 15.795C36.1689 15.8317 36.0847 15.8388 36.0068 15.8148H36.0075ZM33.8536 12.7995L36.0663 15.0122C36.2185 14.9055 36.3626 14.7877 36.4973 14.6597C37.1478 14.011 37.5141 13.1306 37.5159 12.212C37.5174 11.3899 37.2178 10.5957 36.6736 9.97954L33.8536 12.7995Z" fill="#FF6C37"/>
<path d="M31.8373 15.3844C31.5721 15.1354 31.2219 14.9967 30.858 14.9967C30.4942 14.9967 30.144 15.1354 29.8788 15.3844L21.0083 24.2351L22.477 25.7236L31.8571 17.4987C32.0002 17.3616 32.1137 17.1967 32.1906 17.0141C32.2675 16.8314 32.3062 16.635 32.3043 16.4369C32.3025 16.2388 32.2601 16.0431 32.1798 15.862C32.0995 15.6809 31.9829 15.5181 31.8373 15.3837V15.3844Z" fill="white"/>
<path d="M22.3982 26.0769C22.3105 26.0747 22.2267 26.0399 22.1632 25.9792L20.6747 24.4906C20.6112 24.4249 20.5757 24.3371 20.5757 24.2457C20.5757 24.1543 20.6112 24.0665 20.6747 24.0008L29.5458 15.1686C29.8014 14.9133 30.1276 14.7408 30.4824 14.6733C30.8372 14.6057 31.2041 14.6464 31.5355 14.7899C31.8669 14.9334 32.1475 15.1731 32.341 15.478C32.5345 15.783 32.6319 16.139 32.6206 16.5C32.6105 16.745 32.5515 16.9855 32.4472 17.2074C32.3429 17.4293 32.1954 17.6282 32.0133 17.7924L22.6332 26.0174C22.565 26.0657 22.4811 26.0866 22.3982 26.0761V26.0769ZM21.3606 24.2351L22.3395 25.2338L31.5433 17.224C31.771 17.0258 31.9068 16.7423 31.9156 16.4405C31.9245 16.1387 31.8055 15.8434 31.583 15.6378C31.3775 15.4332 31.0993 15.3183 30.8093 15.3183C30.5193 15.3183 30.2411 15.4332 30.0357 15.6378L21.3606 24.2351Z" fill="#FF6C37"/>
<path d="M14.1347 34.321C14.1096 34.355 14.0961 34.3962 14.0961 34.4384C14.0961 34.4807 14.1096 34.5219 14.1347 34.5559L14.5261 36.2597C14.5418 36.3599 14.5269 36.4626 14.4834 36.5543C14.4399 36.646 14.3698 36.7225 14.2823 36.7737C14.195 36.8248 14.0938 36.8468 13.9933 36.8366C13.8927 36.8265 13.798 36.7847 13.7227 36.7172L11.04 34.1322L19.4023 25.7039H22.3008L24.2594 27.6624C21.2042 30.3336 17.7976 32.5739 14.1347 34.321Z" fill="white"/>
<path d="M13.9579 37.1996C13.7361 37.1952 13.5173 37.1042 13.3704 36.9448L10.8052 34.3797C10.7685 34.3503 10.7388 34.313 10.7185 34.2706C10.6981 34.2282 10.6875 34.1818 10.6875 34.1347C10.6875 34.0877 10.6981 34.0413 10.7185 33.9989C10.7388 33.9565 10.7685 33.9192 10.8052 33.8898L19.2255 25.4497C19.2727 25.3996 19.3343 25.3655 19.4018 25.3521H22.3194C22.3954 25.3252 22.4784 25.3252 22.5544 25.3521L24.513 27.3106C24.5502 27.345 24.5786 27.3878 24.5956 27.4355C24.6126 27.4833 24.6178 27.5344 24.6106 27.5845C24.612 27.6332 24.6021 27.6815 24.5818 27.7257C24.5614 27.7699 24.531 27.8088 24.4931 27.8394L24.3367 27.9767C21.2692 30.534 17.8944 32.6983 14.2906 34.4193L14.6629 36.0056C14.6917 36.1279 14.6928 36.2552 14.6661 36.378C14.6395 36.5009 14.5857 36.6162 14.5088 36.7156C14.4319 36.8151 14.3337 36.8961 14.2215 36.9527C14.1093 37.0094 13.9859 37.0403 13.8602 37.0432L13.9579 37.1996ZM11.569 34.1248L13.8793 36.455C13.9008 36.4742 13.9287 36.4848 13.9575 36.4848C13.9864 36.4848 14.0142 36.4742 14.0357 36.455C14.0501 36.435 14.0579 36.411 14.0579 36.3863C14.0579 36.3617 14.0501 36.3377 14.0357 36.3177L13.6443 34.6139C13.6135 34.4917 13.6259 34.3625 13.6794 34.2483C13.7329 34.1341 13.8243 34.042 13.9381 33.9875C17.445 32.2895 20.7328 30.172 23.7294 27.6815L22.1233 26.0754H19.4994L11.569 34.1248Z" fill="#FF6C37"/>
<path d="M9.02339 36.1421L10.9819 34.1836L13.998 37.1996L9.20037 36.867C9.118 36.8605 9.03977 36.8282 8.97685 36.7746C8.91393 36.7211 8.86953 36.649 8.84999 36.5688C8.83045 36.4885 8.83677 36.4041 8.86804 36.3276C8.89931 36.2511 8.95394 36.1865 9.02412 36.1429L9.02339 36.1421Z" fill="white"/>
<path d="M14.0555 37.4933L9.277 37.1606C8.99354 37.1342 8.74973 36.9403 8.64986 36.6811C8.54998 36.4218 8.61093 36.1141 8.80701 35.907L10.7656 33.9485C10.8313 33.885 10.9191 33.8495 11.0105 33.8495C11.1019 33.8495 11.1897 33.885 11.2554 33.9485L14.2516 36.9447C14.2931 37.0015 14.3154 37.0701 14.3154 37.1404C14.3154 37.2108 14.2931 37.2793 14.2516 37.3361C14.2063 37.4094 14.137 37.4647 14.0555 37.4925V37.4933ZM9.277 36.3969L13.1934 36.6517L11.0395 34.6344L9.277 36.3969Z" fill="#FF6C37"/>
<path d="M22.5751 25.9403L18.6191 26.5476L20.9103 24.2762L22.5751 25.9403Z" fill="white"/>
<path d="M18.618 26.9184C18.5522 26.9201 18.4874 26.9024 18.4317 26.8676C18.3759 26.8327 18.3317 26.7822 18.3044 26.7223C18.2627 26.6656 18.2402 26.597 18.2402 26.5266C18.2402 26.4562 18.2627 26.3876 18.3044 26.3309L20.5758 24.0396C20.6447 23.9749 20.7357 23.9388 20.8302 23.9388C20.9248 23.9388 21.0158 23.9749 21.0847 24.0396L22.7502 25.7037C22.7835 25.7565 22.8012 25.8176 22.8012 25.88C22.8012 25.9424 22.7835 26.0035 22.7502 26.0562C22.7339 26.1206 22.6994 26.1788 22.6508 26.224C22.6022 26.2692 22.5416 26.2994 22.4763 26.3111L18.56 26.9184H18.618ZM20.9092 24.7836L19.6365 26.0562L21.8301 25.7236L20.9092 24.7836Z" fill="#FF6C37"/>
<path d="M22.574 25.9388L19.8128 26.2913C19.7389 26.308 19.6616 26.3006 19.5923 26.2699C19.523 26.2393 19.4654 26.1871 19.4281 26.1212C19.3908 26.0553 19.3757 25.979 19.385 25.9039C19.3944 25.8287 19.4278 25.7585 19.4802 25.7038L20.91 24.2739L22.574 25.9388Z" fill="white"/>
<path d="M19.7343 26.6644C19.6063 26.6631 19.4809 26.628 19.3709 26.5626C19.2609 26.4972 19.1701 26.4039 19.1079 26.292C19.0331 26.158 19.0041 26.0032 19.0253 25.8512C19.0465 25.6991 19.1168 25.5582 19.2254 25.4497L20.6552 24.0199C20.7241 23.9551 20.8151 23.9191 20.9097 23.9191C21.0042 23.9191 21.0952 23.9551 21.1641 24.0199L22.8289 25.6847C22.8784 25.7316 22.9133 25.7919 22.9292 25.8582C22.9452 25.9245 22.9415 25.994 22.9187 26.0583C22.896 26.1226 22.855 26.1789 22.8009 26.2204C22.7468 26.2619 22.6818 26.2867 22.6138 26.292L19.8724 26.6445L19.7343 26.6644ZM19.7343 25.9395L21.8104 25.6847L20.8902 24.7645L19.7152 25.9395H19.7343ZM36.7717 11.7809C36.7348 11.7191 36.6765 11.673 36.6078 11.6513C36.5392 11.6297 36.465 11.6339 36.3993 11.6634C36.3669 11.6798 36.3381 11.7026 36.3147 11.7303C36.2912 11.7581 36.2735 11.7902 36.2627 11.8249C36.2409 11.8949 36.2478 11.9707 36.2818 12.0357C36.4192 12.3243 36.381 12.6658 36.1842 12.9169C36.1597 12.9411 36.1406 12.9701 36.1279 13.0021C36.1153 13.0341 36.1094 13.0684 36.1107 13.1027C36.1114 13.1716 36.1376 13.2378 36.1842 13.2885C36.2344 13.3084 36.2903 13.3084 36.3406 13.2885C36.3862 13.3 36.434 13.2987 36.479 13.2849C36.5239 13.271 36.5642 13.2451 36.5954 13.21C36.7567 13.0125 36.8588 12.7735 36.89 12.5205C36.9212 12.2675 36.8801 12.0108 36.7717 11.7801V11.7809Z" fill="#FF6C37"/>
</svg>
