<svg width="48" height="50" viewBox="0 0 48 50" fill="none" xmlns="http://www.w3.org/2000/svg">
<path d="M47.2312 29.5276C46.9466 28.6631 46.201 28.061 45.2367 27.9166C44.7821 27.8485 44.2614 27.8775 43.6452 28.0049C42.5711 28.2271 41.7743 28.3117 41.1928 28.3281C43.3878 24.6119 45.1726 20.3742 46.2001 16.3851C47.8615 9.93486 46.9737 6.99636 45.9362 5.66722C43.1905 2.14913 39.1846 0.25918 34.3518 0.201351C31.7738 0.169741 29.5105 0.680161 28.3299 1.04722C27.2306 0.852719 26.0487 0.744127 24.8085 0.724045C22.4838 0.686855 20.4297 1.19504 18.6746 2.2395C17.7029 1.91001 16.1434 1.44551 14.3425 1.14912C10.1069 0.45182 6.69303 0.995153 4.196 2.76405C1.17233 4.90578 -0.229359 8.62692 0.0298761 13.8241C0.112208 15.4742 1.0327 20.4947 2.48204 25.256C3.315 27.9928 4.20323 30.2654 5.12205 32.0114C6.42508 34.4873 7.81935 35.9453 9.38459 36.4689C10.2619 36.762 11.8559 36.9673 13.5324 35.5671C13.7449 35.8252 14.0284 36.0816 14.4046 36.3198C14.8825 36.622 15.4668 36.8689 16.0503 37.0152C18.1533 37.5424 20.1232 37.4106 21.8038 36.6716C21.8142 36.9714 21.8221 37.2577 21.8288 37.505C21.8399 37.9061 21.8511 38.2994 21.8657 38.6672C21.9653 41.154 22.134 43.0877 22.634 44.4406C22.6614 44.515 22.6983 44.6284 22.7372 44.7487C22.9866 45.5145 23.4037 46.7964 24.4647 47.8003C25.5634 48.8403 26.8924 49.1592 28.1096 49.1592C28.72 49.1592 29.3025 49.0788 29.8134 48.9691C31.6343 48.5777 33.7024 47.9816 35.1985 45.8454C36.613 43.8261 37.3006 40.7846 37.425 35.9922C37.4411 35.8566 37.456 35.7272 37.4702 35.6039L37.4999 35.3507L37.8331 35.38L37.919 35.3858C39.7737 35.4706 42.0415 35.0762 43.4343 34.4274C44.5349 33.9153 48.0616 32.0483 47.2312 29.5276Z" fill="black"/>
<path d="M44.0605 30.0177C38.5457 31.1585 38.1665 29.2862 38.1665 29.2862C43.9891 20.6224 46.4233 9.62503 44.3229 6.93347C38.5923 -0.408607 28.6725 3.06375 28.5069 3.15374L28.4537 3.16341C27.3641 2.93656 26.1449 2.80156 24.7744 2.77906C22.2792 2.73816 20.3863 3.43508 18.9499 4.52733C18.9499 4.52733 1.25403 -2.78295 2.07717 13.7212C2.25222 17.2323 7.09573 40.2879 12.8727 33.324C14.9842 30.7775 17.0246 28.6244 17.0246 28.6244C18.0378 29.2994 19.2509 29.6438 20.5226 29.5201L20.6214 29.4361C20.5906 29.7522 20.6047 30.0614 20.6609 30.4275C19.1726 32.0949 19.61 32.3876 16.635 33.0018C13.6245 33.624 15.3929 34.7315 16.5476 35.0212C17.9475 35.372 21.1859 35.8693 23.374 32.7976L23.2868 33.1481C23.8698 33.6165 24.2793 36.1945 24.2106 38.5316C24.142 40.8686 24.0962 42.4731 24.5555 43.7264C25.0152 44.9797 25.4731 47.7995 29.3842 46.9593C32.6521 46.2569 34.3457 44.4371 34.5814 41.4013C34.7484 39.2432 35.1269 39.5623 35.1506 37.6328L35.4542 36.7194C35.8041 33.7939 35.5098 32.8501 37.5231 33.2891L38.0126 33.3322C39.4942 33.3997 41.4338 33.0931 42.5722 32.5626C45.0233 31.422 46.4771 29.5173 44.0601 30.0177H44.0605Z" fill="#336791"/>
<path d="M19.9855 15.2914C19.4885 15.2221 19.0385 15.2862 18.8107 15.4592C18.6828 15.5564 18.6431 15.6691 18.6324 15.7466C18.6038 15.9521 18.7473 16.1793 18.8356 16.2965C19.0852 16.6282 19.4497 16.8562 19.8106 16.9064C19.8629 16.9138 19.915 16.9172 19.9667 16.9172C20.5685 16.9172 21.1157 16.4473 21.1639 16.1005C21.2242 15.6661 20.5954 15.3766 19.9855 15.2916V15.2914ZM36.449 15.3052C36.4015 14.9647 35.7973 14.8677 35.224 14.9476C34.6514 15.0276 34.0962 15.2868 34.1425 15.628C34.1796 15.8933 34.6575 16.3463 35.2231 16.3463C35.2709 16.3463 35.3191 16.3431 35.3677 16.3363C35.7452 16.2838 36.0223 16.0434 36.1539 15.9049C36.3542 15.6936 36.4703 15.4582 36.449 15.3052Z" fill="white"/>
<path d="M45.8958 29.8881C45.6855 29.2505 45.0087 29.0454 43.8842 29.2782C40.5455 29.9692 39.3498 29.4905 38.9573 29.2006C41.5524 25.2363 43.6873 20.4441 44.839 15.973C45.3846 13.8551 45.6859 11.8881 45.7106 10.2849C45.7378 8.5253 45.4389 7.23223 44.8225 6.44233C42.3373 3.25801 38.6899 1.5499 34.2747 1.50305C31.2394 1.46883 28.6748 2.24776 28.1777 2.4668C27.1307 2.20574 25.9894 2.04545 24.7468 2.025C22.4682 1.98799 20.4985 2.53505 18.8678 3.65017C18.1594 3.38575 16.3288 2.75558 14.0901 2.39391C10.2198 1.76913 7.14416 2.24255 4.94937 3.80171C2.33049 5.66229 1.12147 8.98812 1.35567 13.6866C1.43448 15.2673 2.33272 20.1302 3.75017 24.7872C5.616 30.9167 7.64427 34.3867 9.77823 35.1005C10.028 35.184 10.316 35.2424 10.6336 35.2424C11.4121 35.2424 12.3665 34.8906 13.3595 33.6935C14.5707 32.2365 15.8236 30.8149 17.1166 29.4305C17.9555 29.882 18.8771 30.1341 19.8196 30.1594C19.8215 30.1841 19.8239 30.2088 19.8261 30.2334C19.6639 30.4274 19.505 30.6242 19.3496 30.8238C18.6965 31.6551 18.5605 31.8282 16.4583 32.2622C15.8603 32.3861 14.272 32.7143 14.2487 33.8307C14.2234 35.0505 16.1262 35.5628 16.3429 35.6171C17.0984 35.8068 17.8262 35.9003 18.5203 35.9003C20.2083 35.9003 21.6938 35.3439 22.8809 34.2675C22.8444 38.616 23.0252 42.901 23.5459 44.2065C23.9724 45.2753 25.0142 47.8873 28.3049 47.8871C28.7877 47.8871 29.3192 47.8308 29.9039 47.7051C33.3383 46.9669 34.8297 45.4447 35.4066 42.0889C35.7153 40.2955 36.2451 36.013 36.4943 33.7158C37.0202 33.8804 37.6973 33.9557 38.4292 33.9555C39.9556 33.9555 41.7171 33.6303 42.8217 33.1161C44.0626 32.5382 46.3019 31.1202 45.8958 29.8881ZM37.7171 14.3653C37.7058 15.0435 37.6127 15.6591 37.514 16.3018C37.4078 16.9929 37.298 17.7075 37.2704 18.5749C37.2431 19.4191 37.3483 20.2968 37.4499 21.1456C37.6553 22.8601 37.8662 24.6251 37.0501 26.3666C36.9145 26.1258 36.7938 25.8768 36.6885 25.6212C36.5871 25.3746 36.3668 24.9786 36.0617 24.4304C34.8751 22.2965 32.0964 17.2994 33.5189 15.2603C33.9426 14.6533 35.0179 14.0293 37.7171 14.3653ZM34.4453 2.87626C38.4013 2.96384 41.5307 4.44787 43.7463 7.2869C45.4456 9.46451 43.5744 19.373 38.1573 27.9212C38.1028 27.8517 38.0481 27.7825 37.993 27.7134L37.9244 27.6275C39.3242 25.3094 39.0505 23.0157 38.8069 20.9822C38.7067 20.1477 38.6122 19.3594 38.6363 18.619C38.6611 17.8343 38.7646 17.1612 38.8647 16.5104C38.9877 15.7084 39.1129 14.8785 39.0784 13.9003C39.1041 13.7976 39.1145 13.6764 39.101 13.5325C39.0129 12.5944 37.9448 9.78676 35.7678 7.24562C34.577 5.85567 32.8404 4.30023 30.4692 3.25113C31.4891 3.03915 32.8838 2.84149 34.4453 2.87626ZM12.3087 32.8173C11.2146 34.1364 10.4591 33.8835 10.2107 33.8006C8.59183 33.2591 6.71339 29.828 5.05729 24.3872C3.62426 19.6795 2.78684 14.9455 2.72046 13.618C2.51129 9.4197 3.52617 6.49384 5.73709 4.92148C9.33523 2.36286 15.2509 3.89431 17.628 4.67101C17.5939 4.70485 17.5583 4.73646 17.5245 4.77086C13.6237 8.7211 13.7163 15.4702 13.7259 15.8828C13.7256 16.042 13.7389 16.2674 13.7571 16.5773C13.8242 17.7125 13.9492 19.8252 13.6154 22.2178C13.3054 24.4412 13.9889 26.6173 15.4903 28.1884C15.6444 28.3493 15.8064 28.5024 15.9756 28.6473C15.3073 29.365 13.8548 30.9523 12.3087 32.8173ZM16.477 27.2402C15.2669 25.9739 14.7172 24.2126 14.9689 22.4075C15.3212 19.8801 15.1912 17.6789 15.1213 16.4963C15.1115 16.3308 15.1028 16.1857 15.0978 16.0714C15.6676 15.5647 18.3083 14.1459 20.1916 14.5786C21.0509 14.7759 21.5746 15.3627 21.7923 16.372C22.919 21.5977 21.9414 23.7757 21.1559 25.526C20.994 25.8865 20.841 26.2274 20.7105 26.5799L20.6092 26.8525C20.3529 27.5416 20.1145 28.1824 19.9667 28.7908C18.6801 28.7871 17.4287 28.236 16.477 27.24V27.2402ZM16.6745 34.2876C16.2988 34.1935 15.961 34.03 15.7627 33.8945C15.9283 33.8164 16.223 33.71 16.734 33.6044C19.2071 33.094 19.5891 32.7336 20.4232 31.6717C20.6144 31.4281 20.8312 31.1521 21.1314 30.816L21.1318 30.8156C21.5788 30.3135 21.7834 30.3987 22.1542 30.553C22.4548 30.6776 22.7476 31.0555 22.8663 31.4712C22.9225 31.6676 22.9855 32.0402 22.7791 32.3303C21.0368 34.7766 18.4979 34.7452 16.6745 34.2876ZM29.6176 46.3651C26.592 47.0152 25.5208 45.4672 24.8148 43.6976C24.3592 42.5551 24.1352 37.4033 24.2941 31.7139C24.2962 31.6382 24.2854 31.5651 24.2647 31.4963C24.2461 31.3605 24.2178 31.2261 24.1801 31.0943C23.9439 30.2665 23.3681 29.574 22.6773 29.2869C22.4029 29.1729 21.8993 28.9638 21.294 29.119C21.4231 28.5857 21.6469 27.9834 21.8896 27.3313L21.9914 27.0571C22.106 26.7478 22.2499 26.4274 22.402 26.0883C23.224 24.2571 24.3498 21.7489 23.1279 16.0825C22.6703 13.9601 21.142 12.9237 18.8252 13.1645C17.4363 13.3086 16.1655 13.8705 15.5317 14.1927C15.3954 14.2619 15.2708 14.3289 15.1543 14.3939C15.3312 12.2556 15.9995 8.25921 18.4995 5.73072C20.0737 4.13902 22.17 3.35284 24.7242 3.39523C29.7568 3.47779 32.9841 6.06765 34.8054 8.22593C36.3749 10.0856 37.2248 11.959 37.5639 12.9694C35.0133 12.7093 33.2786 13.2141 32.3992 14.4748C30.4861 17.2172 33.4458 22.5397 34.8683 25.0977C35.1292 25.5665 35.3543 25.9717 35.4251 26.1439C35.8883 27.2696 36.488 28.0212 36.9258 28.5697C37.0601 28.7378 37.1903 28.9009 37.2893 29.0433C36.5168 29.2667 35.1292 29.7827 35.2556 32.3619C35.1537 33.6561 34.4284 39.7153 34.06 41.8561C33.5736 44.6844 32.5357 45.7378 29.6176 46.3653V46.3651ZM42.2463 31.8732C41.4564 32.2409 40.1344 32.5166 38.8786 32.5759C37.4916 32.641 36.7855 32.4201 36.6193 32.2842C36.5414 30.6769 37.138 30.509 37.7694 30.3312C37.8686 30.3033 37.9654 30.276 38.0588 30.2432C38.1169 30.2907 38.1805 30.3377 38.2502 30.3838C39.365 31.1217 41.3534 31.2012 44.1607 30.6202L44.1915 30.614C43.8128 30.969 43.1649 31.4454 42.2463 31.8732Z" fill="white"/>
</svg>
