<svg width="64" height="64" viewBox="0 0 64 64" fill="none" xmlns="http://www.w3.org/2000/svg">
<path d="M32.2356 8.80005C20.6594 8.80005 21.3822 13.8201 21.3822 13.8201L21.3951 19.0211H32.442V20.5826H17.0074C17.0074 20.5826 9.59985 19.7425 9.59985 31.4227C9.59985 43.1033 16.0654 42.689 16.0654 42.689H19.924V37.2688C19.924 37.2688 19.7159 30.8033 26.2863 30.8033H37.2428C37.2428 30.8033 43.3985 30.9028 43.3985 24.854V14.8527C43.3985 14.8527 44.3334 8.80005 32.2356 8.80005ZM26.1443 12.2976C26.4054 12.2974 26.6639 12.3486 26.9051 12.4484C27.1463 12.5482 27.3655 12.6946 27.5501 12.8792C27.7347 13.0637 27.881 13.2829 27.9808 13.5241C28.0806 13.7654 28.1319 14.0239 28.1316 14.2849C28.1319 14.546 28.0806 14.8045 27.9808 15.0457C27.881 15.2869 27.7347 15.5061 27.5501 15.6907C27.3655 15.8753 27.1463 16.0217 26.9051 16.1215C26.6639 16.2212 26.4054 16.2725 26.1443 16.2723C25.8833 16.2725 25.6247 16.2212 25.3835 16.1215C25.1423 16.0217 24.9231 15.8753 24.7385 15.6907C24.5539 15.5061 24.4076 15.2869 24.3078 15.0457C24.208 14.8045 24.1567 14.546 24.157 14.2849C24.1567 14.0239 24.208 13.7654 24.3078 13.5241C24.4076 13.2829 24.5539 13.0637 24.7385 12.8792C24.9231 12.6946 25.1423 12.5482 25.3835 12.4484C25.6247 12.3486 25.8833 12.2974 26.1443 12.2976Z" fill="url(#paint0_linear_1007_991)"/>
<path d="M32.5644 54.163C44.1405 54.163 43.4178 49.1429 43.4178 49.1429L43.4049 43.9421H32.3578V42.3806H47.7924C47.7924 42.3806 55.1999 43.2207 55.1999 31.5401C55.1999 19.8597 48.7344 20.2739 48.7344 20.2739H44.8758V25.694C44.8758 25.694 45.0839 32.1595 38.5135 32.1595H27.557C27.557 32.1595 21.4013 32.06 21.4013 38.109V48.1105C21.4013 48.1105 20.4665 54.163 32.5642 54.163H32.5644ZM38.6557 50.6658C38.3946 50.666 38.1361 50.6148 37.8949 50.515C37.6537 50.4152 37.4345 50.2688 37.2499 50.0842C37.0653 49.8996 36.9189 49.6805 36.8191 49.4392C36.7193 49.198 36.6681 48.9395 36.6683 48.6784C36.6681 48.4174 36.7193 48.1588 36.8191 47.9176C36.9189 47.6763 37.0652 47.4572 37.2498 47.2725C37.4344 47.0879 37.6536 46.9415 37.8948 46.8417C38.1361 46.7419 38.3946 46.6907 38.6557 46.6909C38.9167 46.6907 39.1752 46.7419 39.4165 46.8417C39.6577 46.9415 39.8769 47.0879 40.0614 47.2725C40.246 47.4571 40.3924 47.6762 40.4922 47.9175C40.592 48.1587 40.6432 48.4172 40.643 48.6783C40.6432 48.9393 40.592 49.1978 40.4922 49.4391C40.3924 49.6803 40.246 49.8995 40.0614 50.084C39.8769 50.2686 39.6577 50.415 39.4165 50.5148C39.1752 50.6146 38.9167 50.6658 38.6557 50.6656V50.6658Z" fill="url(#paint1_linear_1007_991)"/>
<defs>
<linearGradient id="paint0_linear_1007_991" x1="13.982" y1="12.8802" x2="36.5799" y2="35.2527" gradientUnits="userSpaceOnUse">
<stop stop-color="#387EB8"/>
<stop offset="1" stop-color="#366994"/>
</linearGradient>
<linearGradient id="paint1_linear_1007_991" x1="27.8527" y1="27.2465" x2="52.1204" y2="50.1874" gradientUnits="userSpaceOnUse">
<stop stop-color="#FFE052"/>
<stop offset="1" stop-color="#FFC331"/>
</linearGradient>
</defs>
</svg>
