<svg width="46" height="47" viewBox="0 0 46 47" fill="none" xmlns="http://www.w3.org/2000/svg">
<path d="M23.0001 27.6554C25.2233 27.6554 27.0255 25.8531 27.0255 23.6299C27.0255 21.4067 25.2233 19.6045 23.0001 19.6045C20.7769 19.6045 18.9746 21.4067 18.9746 23.6299C18.9746 25.8531 20.7769 27.6554 23.0001 27.6554Z" fill="#61DAFB"/>
<path d="M23.0004 31.877C34.9297 31.877 44.6004 28.1846 44.6004 23.6297C44.6004 19.0749 34.9297 15.3824 23.0004 15.3824C11.071 15.3824 1.40039 19.0749 1.40039 23.6297C1.40039 28.1846 11.071 31.877 23.0004 31.877Z" stroke="#61DAFB" stroke-width="2.28298"/>
<path d="M15.8581 27.7535C21.8228 38.0846 29.8558 44.6134 33.8004 42.336C37.745 40.0586 36.1074 29.8373 30.1428 19.5062C24.1781 9.17508 16.145 2.64626 12.2004 4.92369C8.25581 7.20111 9.8934 17.4224 15.8581 27.7535Z" stroke="#61DAFB" stroke-width="2.28298"/>
<path d="M15.8582 19.506C9.8935 29.8371 8.25591 40.0584 12.2005 42.3358C16.1451 44.6132 24.1782 38.0844 30.1429 27.7533C36.1075 17.4221 37.7451 7.2009 33.8005 4.92348C29.8559 2.64606 21.8228 9.17487 15.8582 19.506Z" stroke="#61DAFB" stroke-width="2.28298"/>
</svg>
