<svg width="49" height="46" viewBox="0 0 49 46" fill="none" xmlns="http://www.w3.org/2000/svg">
<path d="M33.5263 32.0807C35.3119 31.8959 36.6665 30.3566 36.6049 28.5093C36.5434 26.6621 35.004 25.1842 33.1568 25.1842H33.0337C31.1248 25.2459 29.6471 26.8468 29.7087 28.7555C29.7703 29.6792 30.1397 30.4797 30.6938 31.0338C28.6004 35.1595 25.3986 38.1766 20.5959 40.7012C17.3325 42.4253 13.9461 43.0411 10.5596 42.6101C7.7888 42.2406 5.63374 41.0092 4.27893 38.977C2.30872 35.9599 2.12406 32.6963 3.78657 29.4329C4.95653 27.093 6.80351 25.3689 7.97346 24.5068C7.72718 23.7064 7.35767 22.3518 7.17301 21.3667C-1.75512 27.8321 -0.831445 36.5757 1.87779 40.7012C3.90961 43.7801 8.03508 45.6889 12.5915 45.6889C13.8229 45.6889 15.0542 45.5656 16.2858 45.2579C24.1672 43.7185 30.1399 39.0387 33.5263 32.0807V32.0807ZM44.3632 24.4454C39.6836 18.9652 32.7875 15.948 24.9061 15.948H23.921C23.3668 14.8397 22.1968 14.1007 20.9038 14.1007H20.7806C18.872 14.1623 17.3943 15.7632 17.4558 17.6722C17.5174 19.5193 19.0567 20.9972 20.9038 20.9972H21.0269C22.3815 20.9356 23.5514 20.0735 24.044 18.9035H25.1523C29.832 18.9035 34.2651 20.2582 38.2676 22.906C41.3461 24.938 43.5628 27.5858 44.7942 30.7876C45.8409 33.3737 45.7793 35.8983 44.6709 38.0536C42.947 41.317 40.0531 43.1027 36.2355 43.1027C33.7726 43.1027 31.4329 42.3637 30.2013 41.8095C29.5241 42.4253 28.2925 43.4104 27.4304 44.0264C30.0782 45.2577 32.7875 45.9352 35.3735 45.9352C41.2845 45.9352 45.6562 42.6716 47.3187 39.4082C49.1043 35.8367 48.9811 29.6792 44.3632 24.4454V24.4454ZM13.084 33.1273C13.1456 34.9746 14.6849 36.4523 16.5321 36.4523H16.6553C18.5641 36.3909 20.0418 34.7898 19.9801 32.881C19.9187 31.0336 18.3793 29.556 16.5321 29.556H16.409C16.2858 29.556 16.101 29.556 15.9781 29.6174C13.4535 25.4303 12.4068 20.8739 12.7763 15.9479C13.0224 12.2533 14.254 9.05136 16.409 6.40356C18.1946 4.12527 21.6427 3.01693 23.9826 2.9555C30.5092 2.83227 33.2798 10.9601 33.4647 14.2237C34.2651 14.4084 35.6197 14.8395 36.5434 15.1474C35.8044 5.17237 29.6471 0 23.7363 0C18.1946 0 13.084 4.00241 11.052 9.91361C8.21974 17.7952 10.0669 25.3689 13.515 31.3417C13.2073 31.7727 13.0224 32.4501 13.084 33.1275V33.1273Z" fill="#764ABC"/>
</svg>
