<svg width="46" height="46" viewBox="0 0 46 46" fill="none" xmlns="http://www.w3.org/2000/svg">
<path d="M4.9931 24.2029C3.6039 24.2029 2.3642 23.3209 1.90765 22.0076C1.62015 21.183 1.6719 20.2964 2.05255 19.5109C2.43205 18.7255 3.0956 18.1355 3.92015 17.848L35.3209 6.9276C35.6693 6.80685 36.0293 6.74475 36.395 6.74475C37.7831 6.74475 39.0239 7.6268 39.4805 8.9401C39.768 9.76465 39.7162 10.6513 39.3356 11.4368C38.9561 12.2222 38.2925 12.8122 37.4679 13.0997L6.06605 24.0212C5.71875 24.142 5.35765 24.2029 4.9931 24.2029Z" fill="#8CD3DF"/>
<path d="M36.3941 7.3209C37.5383 7.3209 38.5607 8.0477 38.9367 9.12985C39.4243 10.5317 38.6803 12.0692 37.2784 12.5568L5.87768 23.4784C5.59018 23.5784 5.29348 23.629 4.99333 23.629C3.84908 23.629 2.82673 22.9022 2.45068 21.8201C1.96308 20.4182 2.70713 18.8807 4.10898 18.3931L35.5097 7.4727C35.7961 7.3715 36.0939 7.3209 36.3941 7.3209ZM36.3941 6.1709C35.9755 6.1709 35.55 6.2399 35.1314 6.3848L3.73178 17.3052C1.72733 18.0021 0.667033 20.1917 1.36508 22.1961C1.91708 23.7831 3.40403 24.7779 4.99448 24.7779C5.41308 24.7779 5.83858 24.7089 6.25718 24.564L37.6579 13.6436C39.6624 12.9467 40.7215 10.7571 40.0246 8.75265C39.4715 7.16565 37.9845 6.1709 36.3941 6.1709Z" fill="#5F9099"/>
<path d="M9.60589 39.2541C8.21784 39.2541 6.97699 38.3721 6.52044 37.0588C6.23294 36.2342 6.28469 35.3476 6.66534 34.5621C7.04484 33.7767 7.70839 33.1867 8.53294 32.8992L39.9337 21.9788C40.2821 21.8581 40.6421 21.7971 41.0078 21.7971C42.397 21.7971 43.6367 22.6792 44.0932 23.9925C44.3807 24.817 44.329 25.7037 43.9483 26.4891C43.5688 27.2746 42.9053 27.8645 42.0807 28.152L10.6788 39.0713C10.3304 39.192 9.97044 39.2541 9.60589 39.2541Z" fill="#DD215A"/>
<path d="M41.0069 22.372C42.1512 22.372 43.1735 23.0988 43.5496 24.181C44.0372 25.5828 43.2931 27.1204 41.8913 27.608L10.4905 38.5284C10.203 38.6284 9.90631 38.679 9.60616 38.679C8.46191 38.679 7.43956 37.9522 7.06351 36.8701C6.57591 35.4682 7.31996 33.9307 8.72181 33.4431L40.1226 22.5227C40.4089 22.4226 40.7068 22.372 41.0069 22.372ZM41.0069 21.222C40.5883 21.222 40.1628 21.291 39.7442 21.4359L8.34461 32.3563C6.34016 33.0532 5.28101 35.2428 5.97791 37.2473C6.52991 38.8343 8.01686 39.829 9.60731 39.829C10.0259 39.829 10.4514 39.76 10.87 39.6151L42.2708 28.6947C44.2752 27.9978 45.3355 25.8082 44.6375 23.8038C44.0843 22.2156 42.5974 21.2209 41.0069 21.222Z" fill="#A81945"/>
<path d="M35.9849 39.6623C34.5957 39.6623 33.356 38.7803 32.8994 37.467L21.979 6.06738C21.3868 4.36538 22.2907 2.49893 23.9915 1.90783C24.34 1.78708 24.7011 1.72498 25.0656 1.72498C26.4548 1.72498 27.6957 2.60703 28.1522 3.92033L39.0715 35.3199C39.359 36.1445 39.3072 37.0311 38.9266 37.8166C38.5471 38.602 37.8835 39.192 37.059 39.4795C36.7105 39.6014 36.3494 39.6623 35.9849 39.6623Z" fill="#EBB23D"/>
<path d="M25.0653 2.30002C26.2095 2.30002 27.2319 3.02682 27.6079 4.10897L38.5283 35.5097C39.0159 36.9116 38.2719 38.4491 36.87 38.9367C36.5825 39.0368 36.2858 39.0874 35.9857 39.0874C34.8414 39.0874 33.8191 38.3606 33.443 37.2784L22.5215 5.87767C22.2857 5.19802 22.3271 4.46777 22.6411 3.82032C22.9539 3.17287 23.5013 2.68642 24.1809 2.44952C24.4673 2.35062 24.7651 2.30002 25.0653 2.30002ZM25.0653 1.15002C24.6467 1.15002 24.2212 1.21902 23.8026 1.36392C21.7981 2.06082 20.7378 4.25042 21.4359 6.25487L32.3563 37.6556C32.9083 39.2426 34.3952 40.2374 35.9857 40.2374C36.4043 40.2374 36.8298 40.1684 37.2484 40.0235C39.2528 39.3266 40.3131 37.137 39.6151 35.1325L28.6947 3.73177C28.1427 2.14477 26.6557 1.15002 25.0653 1.15002Z" fill="#B58A2F"/>
<path d="M28.853 25.8243L35.0258 23.6774L37.1723 29.8491L30.9996 31.996L28.853 25.8243Z" fill="#CD171D"/>
<path d="M34.6715 24.4099L36.4402 29.4963L31.3537 31.265L29.585 26.1786L34.6715 24.4099ZM35.3799 22.9459L28.1211 25.4702L30.6453 32.729L37.9041 30.2047L35.3799 22.9459Z" fill="#9C1116"/>
<path d="M23.686 10.9674L29.8577 8.82086L32.0042 14.9925L25.8326 17.1391L23.686 10.9674Z" fill="#7F9331"/>
<path d="M29.5045 9.55184L31.2732 14.6383L26.1868 16.407L24.4181 11.3205L29.5045 9.55184ZM30.2129 8.08789L22.9541 10.6121L25.4784 17.8709L32.7372 15.3467L30.2129 8.08789Z" fill="#657527"/>
<path d="M20.9345 44.275C19.5453 44.275 18.3044 43.393 17.8479 42.0797L6.92865 10.6801C6.64115 9.8544 6.6929 8.96775 7.07355 8.1823C7.45305 7.39685 8.1166 6.8069 8.94115 6.5194C9.2896 6.39865 9.64955 6.33655 10.0152 6.33655C11.4044 6.33655 12.6441 7.2186 13.1007 8.5319L24.0211 39.9326C24.6133 41.6347 23.7094 43.5011 22.0086 44.0922C21.6601 44.213 21.299 44.275 20.9345 44.275Z" fill="#66C1A0"/>
<path d="M10.0155 6.9127C11.1597 6.9127 12.1821 7.6395 12.5581 8.72165L23.4785 40.1224C23.9661 41.5242 23.2221 43.0618 21.8202 43.5494C21.5327 43.6494 21.2349 43.7 20.9347 43.7C19.7905 43.7 18.7681 42.9732 18.3921 41.8911L7.47168 10.4903C7.23593 9.81069 7.27848 9.08045 7.59128 8.433C7.90408 7.78555 8.45148 7.2991 9.13113 7.06335C9.41748 6.9633 9.71533 6.9127 10.0155 6.9127ZM10.0155 5.7627C9.59688 5.7627 9.17138 5.8317 8.75278 5.9766C6.74833 6.6735 5.68803 8.86309 6.38608 10.8675L17.3065 42.2683C17.8585 43.8553 19.3454 44.85 20.9359 44.85C21.3545 44.85 21.78 44.781 22.1986 44.6361C24.203 43.9392 25.2633 41.7496 24.5653 39.7452L13.6437 8.34445C13.0929 6.75745 11.6059 5.7627 10.0155 5.7627Z" fill="#4E917A"/>
<path d="M13.9951 30.9994L20.1668 28.8528L22.3133 35.0245L16.1417 37.1711L13.9951 30.9994Z" fill="#852759"/>
<path d="M19.8136 29.5849L21.5823 34.6714L16.4958 36.4401L14.7271 31.3536L19.8136 29.5849ZM20.522 28.121L13.2632 30.6452L15.7874 37.904L23.0462 35.3798L20.522 28.121Z" fill="#551537"/>
<path d="M8.82764 16.1429L15.0006 13.9967L17.1465 20.1686L10.9735 22.3148L8.82764 16.1429Z" fill="#3BA08D"/>
<path d="M14.6466 14.7269L16.4153 19.8133L11.3288 21.582L9.56014 16.4956L14.6466 14.7269ZM15.355 13.2629L8.09619 15.7872L10.6204 23.046L17.8792 20.5217L15.355 13.2629Z" fill="#318575"/>
</svg>
