<svg width="64" height="64" viewBox="0 0 64 64" fill="none" xmlns="http://www.w3.org/2000/svg">
<path d="M9 14.1111C9 11.3 11.3 9 14.1111 9H49.8889C52.7 9 55 11.3 55 14.1111V49.8889C55 52.7 52.7 55 49.8889 55H14.1111C11.3 55 9 52.7 9 49.8889V14.1111Z" fill="#1E88E5"/>
<path d="M14 16.7923C14 15.2692 15.2857 14 16.8286 14H26.6C28.1429 14 29.4286 15.2692 29.4286 16.7923V44.2077C29.4286 45.7308 28.1429 47 26.6 47H16.8286C15.2857 47 14 45.7308 14 44.2077V16.7923ZM34.5714 30.2462C34.5714 31.7692 35.8571 33.0385 37.4 33.0385H47.1714C48.7143 33.0385 50 31.7692 50 30.2462V16.7923C50 15.2692 48.7143 14 47.1714 14H37.4C35.8571 14 34.5714 15.2692 34.5714 16.7923V30.2462Z" fill="white"/>
</svg>
