<svg width="46" height="46" viewBox="0 0 46 46" fill="none" xmlns="http://www.w3.org/2000/svg">
<path d="M0 0H46V46H0V0Z" fill="#017ACB"/>
<path d="M22.0873 17.0343H24.2938V20.8437H18.3282V37.7918L18.1701 37.835C17.9544 37.8925 15.1154 37.8925 14.5044 37.8278L14.0157 37.7847V20.8437H8.05005V17.0343L9.94036 17.0128C10.9754 16.9984 13.6347 16.9984 15.8485 17.0128C18.0623 17.0272 20.8654 17.0343 22.0873 17.0343ZM38.9276 35.995C38.0507 36.9222 37.1092 37.4397 35.5423 37.8637C34.8595 38.0506 34.7445 38.0578 33.2063 38.0506C31.6682 38.0434 31.546 38.0434 30.7985 37.8493C28.8651 37.3534 27.3054 36.3831 26.2416 35.0103C25.9398 34.6222 25.4438 33.8172 25.4438 33.7165C25.4438 33.6878 25.5157 33.6231 25.6091 33.58C25.7026 33.5368 25.8966 33.4147 26.0548 33.3212C26.2129 33.2278 26.5004 33.0553 26.6945 32.9547C26.8885 32.854 27.4491 32.5234 27.9379 32.2287C28.4266 31.934 28.8723 31.6968 28.9226 31.6968C28.9729 31.6968 29.0663 31.7975 29.1382 31.9197C29.5695 32.6456 30.5757 33.5728 31.2873 33.889C31.7257 34.0759 32.696 34.2843 33.1632 34.2843C33.5945 34.2843 34.3851 34.0975 34.8092 33.9034C35.262 33.695 35.492 33.4865 35.7651 33.0697C35.952 32.775 35.9735 32.6959 35.9663 32.1353C35.9663 31.6178 35.9376 31.474 35.7938 31.2368C35.3913 30.5756 34.8451 30.2306 32.6313 29.2531C30.3457 28.2397 29.3179 27.6359 28.4841 26.8237C27.866 26.22 27.7438 26.0547 27.3557 25.3C26.8526 24.3297 26.7879 24.0134 26.7807 22.5687C26.7735 21.5553 26.7951 21.2247 26.9029 20.8797C27.0538 20.3622 27.5426 19.3631 27.7654 19.1115C28.2254 18.5725 28.3907 18.4072 28.7141 18.1412C29.6916 17.3362 31.2154 16.8043 32.6745 16.754C32.8398 16.754 33.386 16.7828 33.8963 16.8187C35.3626 16.9409 36.3617 17.3003 37.3248 18.0693C38.0507 18.6443 39.1504 19.9956 39.0426 20.1753C38.9707 20.2831 36.1029 22.195 35.916 22.2525C35.801 22.2884 35.722 22.2453 35.5638 22.0584C34.5863 20.8868 34.191 20.6353 33.2423 20.5778C32.5667 20.5347 32.2073 20.6137 31.7545 20.9156C31.2801 21.2318 31.0501 21.7134 31.0501 22.3818C31.0573 23.3593 31.431 23.8193 32.811 24.5022C33.7023 24.9406 34.4642 25.3 34.5217 25.3C34.6079 25.3 36.4551 26.22 36.9367 26.5075C39.1792 27.8228 40.092 29.174 40.3292 31.5028C40.5017 33.2565 40.0057 34.8593 38.9276 35.995Z" fill="white"/>
</svg>
