<svg width="47" height="46" viewBox="0 0 47 46" fill="none" xmlns="http://www.w3.org/2000/svg">
<path d="M0.442383 16.0408C0.442383 16.0408 -0.690118 15.2245 0.668883 14.1344L3.83517 11.3032C3.83517 11.3032 4.74117 10.35 5.69908 11.1805L34.9176 33.302V43.9098C34.9176 43.9098 34.9035 45.5755 32.7659 45.3915L0.442383 16.0408Z" fill="#2489CA"/>
<path d="M7.97372 22.8784L0.442578 29.7253C0.442578 29.7253 -0.331299 30.301 0.442578 31.3297L3.93918 34.5101C3.93918 34.5101 4.76968 35.402 5.99656 34.3875L13.9807 28.3333L7.97372 22.8784Z" fill="#1070B3"/>
<path d="M21.1959 22.935L35.0078 12.3885L34.9181 1.83735C34.9181 1.83735 34.3283 -0.465408 32.3605 0.733159L13.981 17.4612L21.1959 22.935Z" fill="#0877B9"/>
<path d="M32.7662 45.4058C33.5684 46.2268 34.5404 45.9579 34.5404 45.9579L45.3039 40.654C46.6818 39.7149 46.4883 38.5494 46.4883 38.5494V6.87705C46.4883 5.48502 45.0632 5.0037 45.0632 5.0037L35.7343 0.506721C33.6958 -0.753189 32.3604 0.733221 32.3604 0.733221C32.3604 0.733221 34.078 -0.503095 34.9179 1.83741V43.7164C34.9179 44.0043 34.8566 44.2874 34.7339 44.5422C34.4885 45.0377 33.9553 45.5001 32.6765 45.3067L32.7662 45.4058Z" fill="#3C99D4"/>
</svg>
