<svg width="52" height="52" viewBox="0 0 52 52" fill="none" xmlns="http://www.w3.org/2000/svg">
<path d="M6.9875 46.9624L0 5.44368L13 0.0811768L21.2063 4.95618L28.8438 0.893677L44.6063 6.98743L35.75 51.9999L6.9875 46.9624Z" fill="url(#paint0_linear_228_763)"/>
<path d="M52.0003 17.6313L45.2565 1.05625L33.1503 0L14.3003 18.0375L19.3378 41.3563L28.844 47.9375L52.0003 34.2062L46.3128 23.5625L52.0003 17.6313Z" fill="url(#paint1_linear_228_763)"/>
<path d="M41.5996 15.1125L46.3121 23.5625L51.9996 17.6313L47.8559 7.3125L41.5996 15.1125Z" fill="url(#paint2_linear_228_763)"/>
<path d="M42.25 9.75H9.75V42.25H42.25V9.75Z" fill="black"/>
<path d="M12.8372 36.1563H25.0247V38.1875H12.8372V36.1563ZM28.7622 25.5125L30.4685 23.4C31.6872 24.375 32.906 25.025 34.4497 25.025C35.6685 25.025 36.3997 24.5375 36.3997 23.725C36.3997 22.9938 35.9122 22.5875 33.7185 22.0188C31.0372 21.2875 29.331 20.5563 29.331 17.875V17.7938C29.331 15.3563 31.281 13.7313 33.9622 13.7313C35.7596 13.7237 37.5066 14.3251 38.9185 15.4375L37.3747 17.7125C36.3938 16.946 35.2045 16.4929 33.9622 16.4125C32.906 16.4125 32.256 16.9 32.256 17.6313C32.256 18.525 32.8247 18.85 35.0997 19.4188C37.781 20.15 39.3247 21.125 39.3247 23.4813C39.3247 26.1625 37.2935 27.7063 34.4497 27.7063C32.3623 27.6295 30.3605 26.8574 28.7622 25.5125ZM26.1622 13.975L24.131 21.775L21.856 13.975H19.581L17.306 21.775L15.2747 13.975H12.106L16.006 27.4625H18.5247L20.7185 19.6625L22.9122 27.4625H25.431L29.331 13.975H26.1622Z" fill="white"/>
<defs>
<linearGradient id="paint0_linear_228_763" x1="18.6022" y1="1.08055" x2="36.2433" y2="47.9518" gradientUnits="userSpaceOnUse">
<stop offset="0.28" stop-color="#00CDD7"/>
<stop offset="0.94" stop-color="#2086D7"/>
</linearGradient>
<linearGradient id="paint1_linear_228_763" x1="22.7787" y1="7.25156" x2="51.8824" y2="33.6449" gradientUnits="userSpaceOnUse">
<stop offset="0.14" stop-color="#FFF045"/>
<stop offset="0.37" stop-color="#00CDD7"/>
</linearGradient>
<linearGradient id="paint2_linear_228_763" x1="1203.38" y1="-4492.6" x2="1331.01" y2="-4611.11" gradientUnits="userSpaceOnUse">
<stop offset="0.28" stop-color="#00CDD7"/>
<stop offset="0.94" stop-color="#2086D7"/>
</linearGradient>
</defs>
</svg>
