<svg width="64" height="64" viewBox="0 0 64 64" fill="none" xmlns="http://www.w3.org/2000/svg">
<path d="M32 55C44.7025 55 55 44.7025 55 32C55 19.2975 44.7025 9 32 9C19.2975 9 9 19.2975 9 32C9 44.7025 19.2975 55 32 55Z" fill="url(#paint0_linear_531_2701)"/>
<path d="M33.2941 24H19.1765C18.5271 24 18 24.512 18 25.1429V36.5714C18 39.096 20.1071 40 22.7059 40H36.8235C37.4729 40 38 39.488 38 38.8571V28.5714C38 26.0469 35.8929 24 33.2941 24Z" fill="white"/>
<path opacity="0.07" d="M33 23H19.6667C18.7478 23 18 23.8076 18 24.8V36.8C18 39.7772 20.2433 41 23 41H36.3333C37.2522 41 38 40.1924 38 39.2V28.4C38 25.4228 35.7567 23 33 23ZM37.4444 39.2C37.4444 39.8624 36.9467 40.4 36.3333 40.4H23C20.5456 40.4 18.5556 39.4508 18.5556 36.8V24.8C18.5556 24.1376 19.0533 23.6 19.6667 23.6H33C35.4544 23.6 37.4444 25.7492 37.4444 28.4V39.2Z" fill="black"/>
<path d="M40 29.2706V34.7301C40 35.0595 40.1656 35.3705 40.45 35.5763L45.0244 38.8809C45.418 39.1637 46 38.9112 46 38.4572V25.5424C46 25.0884 45.418 24.836 45.0256 25.1198L40.4512 28.4244C40.1656 28.6302 40 28.9412 40 29.2706Z" fill="#FEFEFE"/>
<path opacity="0.07" d="M44.8308 24.5747C45.133 24.5747 45.4166 24.8091 45.4166 25.1505V38.8507C45.4166 39.192 45.1319 39.4265 44.8308 39.4265C44.7071 39.4265 44.5799 39.3874 44.4691 39.2989L40.021 35.7934C39.7433 35.575 39.5823 35.2452 39.5823 34.8958V29.1042C39.5823 28.7548 39.7433 28.425 40.0198 28.2066L44.4679 24.7011C44.5799 24.6149 44.706 24.5747 44.8308 24.5747ZM44.8308 24C44.5659 24 44.3151 24.0874 44.105 24.2529L39.6569 27.7584C39.2392 28.0871 39 28.5778 39 29.1042V34.8958C39 35.4222 39.2392 35.9129 39.6569 36.2417L44.105 39.7471C44.3151 39.9127 44.5659 40 44.8308 40C45.4761 40 46 39.4839 46 38.8495V25.1505C46 24.5161 45.4749 24 44.8308 24Z" fill="black"/>
<path opacity="0.05" d="M45.2669 23.6064C44.8723 23.6064 44.4996 23.7346 44.1881 23.9776L39.7896 27.4089C39.2392 27.8375 38.9231 28.4788 38.9231 29.1661V28.625C38.9231 25.5234 36.335 23 33.1538 23H19.3077C18.035 23 17 24.0091 17 25.25V36.5C17 39.6016 19.5881 41 22.7692 41H36.6154C37.8881 41 38.9231 39.9909 38.9231 38.75V34.8339C38.9231 35.5212 39.2392 36.1614 39.7896 36.5911L44.1881 40.0224C44.4996 40.2654 44.8723 40.3936 45.2669 40.3936C46.2223 40.3936 47 39.6365 47 38.705V25.295C47 24.3646 46.2223 23.6064 45.2669 23.6064ZM38.3462 38.75C38.3462 39.6804 37.5696 40.4375 36.6154 40.4375H22.7692C19.9065 40.4375 17.5769 39.2911 17.5769 36.5V25.25C17.5769 24.3196 18.3535 23.5625 19.3077 23.5625H33.1538C36.0165 23.5625 38.3462 25.8339 38.3462 28.625V38.75ZM46.4231 38.705C46.4231 39.326 45.9038 39.8311 45.2669 39.8311C45.005 39.8311 44.7569 39.7456 44.5492 39.5836L40.1508 36.1524C39.7377 35.8306 39.5012 35.3503 39.5012 34.835V29.1661C39.5012 28.6509 39.7377 28.1705 40.1508 27.8487L44.5492 24.4175C44.7569 24.2555 45.005 24.17 45.2669 24.17C45.905 24.17 46.4231 24.6751 46.4231 25.2961V38.705Z" fill="black"/>
<defs>
<linearGradient id="paint0_linear_531_2701" x1="32" y1="9" x2="32" y2="55" gradientUnits="userSpaceOnUse">
<stop stop-color="#33BEF0"/>
<stop offset="1" stop-color="#0A85D9"/>
</linearGradient>
</defs>
</svg>
